<mxfile host="app.diagrams.net" modified="2023-05-24T10:42:56.010Z" agent="Mozilla/5.0 (X11; Linux x86_64; rv:103.0) Gecko/20100101 Firefox/103.0" etag="M6Yk5UD8neDOLa6zPb10" version="21.3.3" type="device">
  <diagram name="Page-1" id="-kK_kiFFg7Puqz2msz7I">
    <mxGraphModel dx="2544" dy="422" grid="1" gridSize="10" guides="1" tooltips="1" connect="1" arrows="1" fold="1" page="1" pageScale="1" pageWidth="850" pageHeight="1100" math="0" shadow="0">
      <root>
        <mxCell id="0" />
        <mxCell id="1" parent="0" />
        <mxCell id="JBEOFxgzKlI2JelINLc4-1" value="" style="rounded=1;whiteSpace=wrap;html=1;fontFamily=Times New Roman;fontSize=12;fontColor=#FF3333;strokeColor=#000000;fillColor=none;" vertex="1" parent="1">
          <mxGeometry x="-1290" width="510" height="230" as="geometry" />
        </mxCell>
        <mxCell id="JBEOFxgzKlI2JelINLc4-2" value="&lt;font style=&quot;font-size: 14px;&quot; face=&quot;Times New Roman&quot;&gt;&amp;nbsp;ascending sort direction &lt;/font&gt;" style="text;html=1;align=center;verticalAlign=middle;resizable=0;points=[];autosize=1;strokeColor=none;fillColor=none;rotation=90;" vertex="1" parent="1">
          <mxGeometry x="-889" y="138" width="156" height="32" as="geometry" />
        </mxCell>
        <mxCell id="JBEOFxgzKlI2JelINLc4-3" value="&lt;font style=&quot;font-size: 14px;&quot;&gt;&lt;b&gt;Uint&lt;/b&gt; data type&lt;/font&gt;" style="text;html=1;align=center;verticalAlign=middle;resizable=0;points=[];autosize=1;strokeColor=none;fillColor=none;fontFamily=Times New Roman;fontColor=#000000;rotation=90;" vertex="1" parent="1">
          <mxGeometry x="-846" y="132" width="100" height="30" as="geometry" />
        </mxCell>
        <mxCell id="JBEOFxgzKlI2JelINLc4-4" value="" style="endArrow=blockThin;startArrow=blockThin;html=1;strokeColor=#000000;fontFamily=Times New Roman;fontSize=10;fontColor=#1A5FB4;curved=1;strokeWidth=1.5;endFill=1;startFill=1;" edge="1" parent="1">
          <mxGeometry width="50" height="50" relative="1" as="geometry">
            <mxPoint x="-1150" y="70" as="sourcePoint" />
            <mxPoint x="-985" y="70" as="targetPoint" />
          </mxGeometry>
        </mxCell>
        <mxCell id="JBEOFxgzKlI2JelINLc4-5" value="&lt;font style=&quot;font-size: 14px;&quot;&gt;n = &lt;b&gt;4&lt;/b&gt;&lt;/font&gt;" style="text;html=1;align=center;verticalAlign=middle;resizable=0;points=[];autosize=1;strokeColor=none;fillColor=none;fontFamily=Times New Roman;fontColor=#000000;" vertex="1" parent="1">
          <mxGeometry x="-830" y="40" width="50" height="30" as="geometry" />
        </mxCell>
        <mxCell id="JBEOFxgzKlI2JelINLc4-6" value="" style="endArrow=blockThin;html=1;rounded=0;endFill=1;strokeColor=#000000;" edge="1" parent="1">
          <mxGeometry x="-1" y="-149" width="50" height="50" relative="1" as="geometry">
            <mxPoint x="-825" y="100" as="sourcePoint" />
            <mxPoint x="-825" y="215" as="targetPoint" />
            <mxPoint x="39" y="-100" as="offset" />
          </mxGeometry>
        </mxCell>
        <mxCell id="JBEOFxgzKlI2JelINLc4-7" value="" style="endArrow=block;html=1;endFill=1;strokeColor=#000000;curved=1;" edge="1" parent="1">
          <mxGeometry width="50" height="50" relative="1" as="geometry">
            <mxPoint x="-1035" y="89" as="sourcePoint" />
            <mxPoint x="-1014" y="69" as="targetPoint" />
            <Array as="points">
              <mxPoint x="-1035" y="89" />
              <mxPoint x="-1030" y="90" />
              <mxPoint x="-1020" y="80" />
            </Array>
          </mxGeometry>
        </mxCell>
        <mxCell id="JBEOFxgzKlI2JelINLc4-8" value="&lt;b&gt;&lt;font face=&quot;Times New Roman&quot;&gt;latency&lt;/font&gt;&lt;/b&gt;" style="text;html=1;align=center;verticalAlign=middle;resizable=0;points=[];autosize=1;strokeColor=none;fillColor=none;" vertex="1" parent="1">
          <mxGeometry x="-1093" y="70" width="60" height="30" as="geometry" />
        </mxCell>
        <mxCell id="JBEOFxgzKlI2JelINLc4-9" value="&lt;font face=&quot;Times New Roman&quot;&gt;INPUT&lt;/font&gt;" style="text;html=1;align=center;verticalAlign=middle;resizable=0;points=[];autosize=1;strokeColor=none;fillColor=none;" vertex="1" parent="1">
          <mxGeometry x="-835" y="23" width="60" height="30" as="geometry" />
        </mxCell>
        <mxCell id="JBEOFxgzKlI2JelINLc4-10" value="" style="shape=image;verticalLabelPosition=bottom;labelBackgroundColor=default;verticalAlign=top;aspect=fixed;imageAspect=0;image=data:image/svg+xml,PHN2ZyBjbGFzcz0iV2F2ZURyb20iIG92ZXJmbG93PSJoaWRkZW4iIHZpZXdCb3g9IjAgMCA0NzAgMjEwIiB3aWR0aD0iNDcwIiBoZWlnaHQ9IjIxMCIgeG1sbnM6eGxpbms9Imh0dHA6Ly93d3cudzMub3JnLzE5OTkveGxpbmsiIHhtbG5zPSJodHRwOi8vd3d3LnczLm9yZy8yMDAwL3N2ZyIgaWQ9InN2Z2NvbnRlbnRfMCI+PHN0eWxlIHR5cGU9InRleHQvY3NzIj50ZXh0e2ZvbnQtc2l6ZToxMXB0O2ZvbnQtc3R5bGU6bm9ybWFsO2ZvbnQtdmFyaWFudDpub3JtYWw7Zm9udC13ZWlnaHQ6bm9ybWFsO2ZvbnQtc3RyZXRjaDpub3JtYWw7dGV4dC1hbGlnbjpjZW50ZXI7ZmlsbC1vcGFjaXR5OjE7Zm9udC1mYW1pbHk6SGVsdmV0aWNhfS5oMXtmb250LXNpemU6MzNwdDtmb250LXdlaWdodDpib2xkfS5oMntmb250LXNpemU6MjdwdDtmb250LXdlaWdodDpib2xkfS5oM3tmb250LXNpemU6MjBwdDtmb250LXdlaWdodDpib2xkfS5oNHtmb250LXNpemU6MTRwdDtmb250LXdlaWdodDpib2xkfS5oNXtmb250LXNpemU6MTFwdDtmb250LXdlaWdodDpib2xkfS5oNntmb250LXNpemU6OHB0O2ZvbnQtd2VpZ2h0OmJvbGR9Lm11dGVke2ZpbGw6I2FhYX0ud2FybmluZ3tmaWxsOiNmNmI5MDB9LmVycm9ye2ZpbGw6I2Y2MDAwMH0uaW5mb3tmaWxsOiMwMDQxYzR9LnN1Y2Nlc3N7ZmlsbDojMDBhYjAwfS5zMXtmaWxsOm5vbmU7c3Ryb2tlOiMwMDAwMDA7c3Ryb2tlLXdpZHRoOjE7c3Ryb2tlLWxpbmVjYXA6cm91bmQ7c3Ryb2tlLWxpbmVqb2luOm1pdGVyO3N0cm9rZS1taXRlcmxpbWl0OjQ7c3Ryb2tlLW9wYWNpdHk6MTtzdHJva2UtZGFzaGFycmF5Om5vbmV9LnMye2ZpbGw6bm9uZTtzdHJva2U6IzAwMDAwMDtzdHJva2Utd2lkdGg6MC41O3N0cm9rZS1saW5lY2FwOnJvdW5kO3N0cm9rZS1saW5lam9pbjptaXRlcjtzdHJva2UtbWl0ZXJsaW1pdDo0O3N0cm9rZS1vcGFjaXR5OjE7c3Ryb2tlLWRhc2hhcnJheTpub25lfS5zM3tjb2xvcjojMDAwMDAwO2ZpbGw6bm9uZTtzdHJva2U6IzAwMDAwMDtzdHJva2Utd2lkdGg6MTtzdHJva2UtbGluZWNhcDpyb3VuZDtzdHJva2UtbGluZWpvaW46bWl0ZXI7c3Ryb2tlLW1pdGVybGltaXQ6NDtzdHJva2Utb3BhY2l0eToxO3N0cm9rZS1kYXNoYXJyYXk6MSwgMztzdHJva2UtZGFzaG9mZnNldDowO21hcmtlcjpub25lO3Zpc2liaWxpdHk6dmlzaWJsZTtkaXNwbGF5OmlubGluZTtvdmVyZmxvdzp2aXNpYmxlfS5zNHtjb2xvcjojMDAwMDAwO2ZpbGw6bm9uZTtzdHJva2U6IzAwMDAwMDtzdHJva2Utd2lkdGg6MTtzdHJva2UtbGluZWNhcDpyb3VuZDtzdHJva2UtbGluZWpvaW46bWl0ZXI7c3Ryb2tlLW1pdGVybGltaXQ6NDtzdHJva2Utb3BhY2l0eToxO3N0cm9rZS1kYXNoYXJyYXk6bm9uZTtzdHJva2UtZGFzaG9mZnNldDowO21hcmtlcjpub25lO3Zpc2liaWxpdHk6dmlzaWJsZTtkaXNwbGF5OmlubGluZTtvdmVyZmxvdzp2aXNpYmxlfS5zNXtmaWxsOiNmZmZmZmY7c3Ryb2tlOm5vbmV9LnM2e2ZpbGw6IzAwMDAwMDtmaWxsLW9wYWNpdHk6MTtzdHJva2U6bm9uZX0uczd7Y29sb3I6IzAwMDAwMDtmaWxsOiNmZmY7ZmlsbC1vcGFjaXR5OjE7ZmlsbC1ydWxlOm5vbnplcm87c3Ryb2tlOm5vbmU7c3Ryb2tlLXdpZHRoOjFweDttYXJrZXI6bm9uZTt2aXNpYmlsaXR5OnZpc2libGU7ZGlzcGxheTppbmxpbmU7b3ZlcmZsb3c6dmlzaWJsZX0uczh7Y29sb3I6IzAwMDAwMDtmaWxsOiNmZmZmYjQ7ZmlsbC1vcGFjaXR5OjE7ZmlsbC1ydWxlOm5vbnplcm87c3Ryb2tlOm5vbmU7c3Ryb2tlLXdpZHRoOjFweDttYXJrZXI6bm9uZTt2aXNpYmlsaXR5OnZpc2libGU7ZGlzcGxheTppbmxpbmU7b3ZlcmZsb3c6dmlzaWJsZX0uczl7Y29sb3I6IzAwMDAwMDtmaWxsOiNmZmUwYjk7ZmlsbC1vcGFjaXR5OjE7ZmlsbC1ydWxlOm5vbnplcm87c3Ryb2tlOm5vbmU7c3Ryb2tlLXdpZHRoOjFweDttYXJrZXI6bm9uZTt2aXNpYmlsaXR5OnZpc2libGU7ZGlzcGxheTppbmxpbmU7b3ZlcmZsb3c6dmlzaWJsZX0uczEwe2NvbG9yOiMwMDAwMDA7ZmlsbDojYjllMGZmO2ZpbGwtb3BhY2l0eToxO2ZpbGwtcnVsZTpub256ZXJvO3N0cm9rZTpub25lO3N0cm9rZS13aWR0aDoxcHg7bWFya2VyOm5vbmU7dmlzaWJpbGl0eTp2aXNpYmxlO2Rpc3BsYXk6aW5saW5lO292ZXJmbG93OnZpc2libGV9LnMxMXtjb2xvcjojMDAwMDAwO2ZpbGw6I2NjZmRmZTtmaWxsLW9wYWNpdHk6MTtmaWxsLXJ1bGU6bm9uemVybztzdHJva2U6bm9uZTtzdHJva2Utd2lkdGg6MXB4O21hcmtlcjpub25lO3Zpc2liaWxpdHk6dmlzaWJsZTtkaXNwbGF5OmlubGluZTtvdmVyZmxvdzp2aXNpYmxlfS5zMTJ7Y29sb3I6IzAwMDAwMDtmaWxsOiNjZGZkYzU7ZmlsbC1vcGFjaXR5OjE7ZmlsbC1ydWxlOm5vbnplcm87c3Ryb2tlOm5vbmU7c3Ryb2tlLXdpZHRoOjFweDttYXJrZXI6bm9uZTt2aXNpYmlsaXR5OnZpc2libGU7ZGlzcGxheTppbmxpbmU7b3ZlcmZsb3c6dmlzaWJsZX0uczEze2NvbG9yOiMwMDAwMDA7ZmlsbDojZjBjMWZiO2ZpbGwtb3BhY2l0eToxO2ZpbGwtcnVsZTpub256ZXJvO3N0cm9rZTpub25lO3N0cm9rZS13aWR0aDoxcHg7bWFya2VyOm5vbmU7dmlzaWJpbGl0eTp2aXNpYmxlO2Rpc3BsYXk6aW5saW5lO292ZXJmbG93OnZpc2libGV9LnMxNHtjb2xvcjojMDAwMDAwO2ZpbGw6I2Y1YzJjMDtmaWxsLW9wYWNpdHk6MTtmaWxsLXJ1bGU6bm9uemVybztzdHJva2U6bm9uZTtzdHJva2Utd2lkdGg6MXB4O21hcmtlcjpub25lO3Zpc2liaWxpdHk6dmlzaWJsZTtkaXNwbGF5OmlubGluZTtvdmVyZmxvdzp2aXNpYmxlfTwvc3R5bGU+PGRlZnM+PGcgaWQ9InNvY2tldCI+PHJlY3Qgd2lkdGg9IjEwIiBoZWlnaHQ9IjIwIiB4PSI0IiB5PSIxNSIvPjwvZz48ZyBpZD0icGNsayI+PHBhdGggY2xhc3M9InMxIiBkPSJNIDAsMjAgMCwwIDEwLDAiLz48L2c+PGcgaWQ9Im5jbGsiPjxwYXRoIGNsYXNzPSJzMSIgZD0ibSAwLDAgMCwyMCAxMCwwIi8+PC9nPjxnIGlkPSIwMDAiPjxwYXRoIGNsYXNzPSJzMSIgZD0ibSAwLDIwIDEwLDAiLz48L2c+PGcgaWQ9IjBtMCI+PHBhdGggY2xhc3M9InMxIiBkPSJtIDAsMjAgMSwwIDMsLTEwIDMsMTAgMywwIi8+PC9nPjxnIGlkPSIwbTEiPjxwYXRoIGNsYXNzPSJzMSIgZD0iTSAwLDIwIDEsMjAgNywwIDEwLDAiLz48L2c+PGcgaWQ9IjBteCI+PHBhdGggY2xhc3M9InMxIiBkPSJNIDEsMjAgNywwIDEwLDAiLz48cGF0aCBjbGFzcz0iczIiIGQ9Ik0gMTAsMTUgNSwyMCIvPjxwYXRoIGNsYXNzPSJzMiIgZD0iTSAxMCwxMCAyLDE4Ii8+PHBhdGggY2xhc3M9InMyIiBkPSJNIDEwLDUgNCwxMSIvPjxwYXRoIGNsYXNzPSJzMiIgZD0iTSAxMCwwIDYsNCIvPjxwYXRoIGNsYXNzPSJzMSIgZD0ibSAwLDIwIDEwLDAiLz48L2c+PGcgaWQ9IjBtZCI+PHBhdGggY2xhc3M9InMzIiBkPSJtIDEsMjAgOSwwIi8+PHBhdGggY2xhc3M9InMxIiBkPSJtIDAsMjAgMSwwIi8+PC9nPjxnIGlkPSIwbXUiPjxwYXRoIGNsYXNzPSJzMSIgZD0ibSAwLDIwIDEsMCBDIDIsMTMgNSwwIDEwLDAiLz48L2c+PGcgaWQ9IjBteiI+PHBhdGggY2xhc3M9InMxIiBkPSJtIDAsMjAgMSwwIEMgMywxNCA3LDEwIDEwLDEwIi8+PC9nPjxnIGlkPSIxMTEiPjxwYXRoIGNsYXNzPSJzMSIgZD0iTSAwLDAgMTAsMCIvPjwvZz48ZyBpZD0iMW0wIj48cGF0aCBjbGFzcz0iczEiIGQ9Im0gMCwwIDEsMCA2LDIwIDMsMCIvPjwvZz48ZyBpZD0iMW0xIj48cGF0aCBjbGFzcz0iczEiIGQ9Ik0gMCwwIDEsMCA0LDEwIDcsMCAxMCwwIi8+PC9nPjxnIGlkPSIxbXgiPjxwYXRoIGNsYXNzPSJzMSIgZD0ibSAxLDAgNiwyMCAzLDAiLz48cGF0aCBjbGFzcz0iczEiIGQ9Ik0gMCwwIDEwLDAiLz48cGF0aCBjbGFzcz0iczIiIGQ9Ik0gMTAsMTUgNi41LDE4LjUiLz48cGF0aCBjbGFzcz0iczIiIGQ9Ik0gMTAsMTAgNS41LDE0LjUiLz48cGF0aCBjbGFzcz0iczIiIGQ9Ik0gMTAsNSA0LjUsMTAuNSIvPjxwYXRoIGNsYXNzPSJzMiIgZD0iTSAxMCwwIDMsNyIvPjxwYXRoIGNsYXNzPSJzMiIgZD0iTSAyLDMgNSwwIi8+PC9nPjxnIGlkPSIxbWQiPjxwYXRoIGNsYXNzPSJzMSIgZD0ibSAwLDAgMSwwIGMgMSw3IDQsMjAgOSwyMCIvPjwvZz48ZyBpZD0iMW11Ij48cGF0aCBjbGFzcz0iczEiIGQ9Ik0gMCwwIDEsMCIvPjxwYXRoIGNsYXNzPSJzMyIgZD0ibSAxLDAgOSwwIi8+PC9nPjxnIGlkPSIxbXoiPjxwYXRoIGNsYXNzPSJzMSIgZD0ibSAwLDAgMSwwIGMgMiw0IDYsMTAgOSwxMCIvPjwvZz48ZyBpZD0ieHh4Ij48cGF0aCBjbGFzcz0iczEiIGQ9Im0gMCwyMCAxMCwwIi8+PHBhdGggY2xhc3M9InMxIiBkPSJNIDAsMCAxMCwwIi8+PHBhdGggY2xhc3M9InMyIiBkPSJNIDAsNSA1LDAiLz48cGF0aCBjbGFzcz0iczIiIGQ9Ik0gMCwxMCAxMCwwIi8+PHBhdGggY2xhc3M9InMyIiBkPSJNIDAsMTUgMTAsNSIvPjxwYXRoIGNsYXNzPSJzMiIgZD0iTSAwLDIwIDEwLDEwIi8+PHBhdGggY2xhc3M9InMyIiBkPSJtIDUsMjAgNSwtNSIvPjwvZz48ZyBpZD0ieG0wIj48cGF0aCBjbGFzcz0iczEiIGQ9Ik0gMCwwIDEsMCA3LDIwIi8+PHBhdGggY2xhc3M9InMxIiBkPSJtIDAsMjAgMTAsMCIvPjxwYXRoIGNsYXNzPSJzMiIgZD0iTSAwLDUgMiwzIi8+PHBhdGggY2xhc3M9InMyIiBkPSJNIDAsMTAgMyw3Ii8+PHBhdGggY2xhc3M9InMyIiBkPSJNIDAsMTUgNCwxMSIvPjxwYXRoIGNsYXNzPSJzMiIgZD0iTSAwLDIwIDUsMTUiLz48cGF0aCBjbGFzcz0iczIiIGQ9Ik0gNSwyMCA2LDE5Ii8+PC9nPjxnIGlkPSJ4bTEiPjxwYXRoIGNsYXNzPSJzMSIgZD0iTSAwLDAgMTAsMCIvPjxwYXRoIGNsYXNzPSJzMSIgZD0iTSAwLDIwIDEsMjAgNywwIi8+PHBhdGggY2xhc3M9InMyIiBkPSJNIDAsNSA1LDAiLz48cGF0aCBjbGFzcz0iczIiIGQ9Ik0gMCwxMCA2LDQiLz48cGF0aCBjbGFzcz0iczIiIGQ9Ik0gMCwxNSAzLDEyIi8+PHBhdGggY2xhc3M9InMyIiBkPSJNIDAsMjAgMSwxOSIvPjwvZz48ZyBpZD0ieG14Ij48cGF0aCBjbGFzcz0iczEiIGQ9Im0gMCwyMCAxMCwwIi8+PHBhdGggY2xhc3M9InMxIiBkPSJNIDAsMCAxMCwwIi8+PHBhdGggY2xhc3M9InMyIiBkPSJNIDAsNSA1LDAiLz48cGF0aCBjbGFzcz0iczIiIGQ9Ik0gMCwxMCAxMCwwIi8+PHBhdGggY2xhc3M9InMyIiBkPSJNIDAsMTUgMTAsNSIvPjxwYXRoIGNsYXNzPSJzMiIgZD0iTSAwLDIwIDEwLDEwIi8+PHBhdGggY2xhc3M9InMyIiBkPSJtIDUsMjAgNSwtNSIvPjwvZz48ZyBpZD0ieG1kIj48cGF0aCBjbGFzcz0iczEiIGQ9Im0gMCwwIDEsMCBjIDEsNyA0LDIwIDksMjAiLz48cGF0aCBjbGFzcz0iczEiIGQ9Im0gMCwyMCAxMCwwIi8+PHBhdGggY2xhc3M9InMyIiBkPSJNIDAsNSAxLjUsMy41Ii8+PHBhdGggY2xhc3M9InMyIiBkPSJNIDAsMTAgMi41LDcuNSIvPjxwYXRoIGNsYXNzPSJzMiIgZD0iTSAwLDE1IDMuNSwxMS41Ii8+PHBhdGggY2xhc3M9InMyIiBkPSJNIDAsMjAgNSwxNSIvPjxwYXRoIGNsYXNzPSJzMiIgZD0iTSA1LDIwIDcsMTgiLz48L2c+PGcgaWQ9InhtdSI+PHBhdGggY2xhc3M9InMxIiBkPSJNIDAsMCAxMCwwIi8+PHBhdGggY2xhc3M9InMxIiBkPSJtIDAsMjAgMSwwIEMgMiwxMyA1LDAgMTAsMCIvPjxwYXRoIGNsYXNzPSJzMiIgZD0iTSAwLDUgNSwwIi8+PHBhdGggY2xhc3M9InMyIiBkPSJNIDAsMTAgNSw1Ii8+PHBhdGggY2xhc3M9InMyIiBkPSJNIDAsMTUgMiwxMyIvPjxwYXRoIGNsYXNzPSJzMiIgZD0iTSAwLDIwIDEsMTkiLz48L2c+PGcgaWQ9InhteiI+PHBhdGggY2xhc3M9InMxIiBkPSJtIDAsMCAxLDAgYyAyLDYgNiwxMCA5LDEwIi8+PHBhdGggY2xhc3M9InMxIiBkPSJtIDAsMjAgMSwwIEMgMywxNCA3LDEwIDEwLDEwIi8+PHBhdGggY2xhc3M9InMyIiBkPSJNIDAsNSAyLDMiLz48cGF0aCBjbGFzcz0iczIiIGQ9Ik0gMCwxMCA0LDYiLz48cGF0aCBjbGFzcz0iczIiIGQ9Im0gMCwxNS41IDYsLTciLz48cGF0aCBjbGFzcz0iczIiIGQ9Ik0gMCwyMCAxLDE5Ii8+PC9nPjxnIGlkPSJkZGQiPjxwYXRoIGNsYXNzPSJzMyIgZD0ibSAwLDIwIDEwLDAiLz48L2c+PGcgaWQ9ImRtMCI+PHBhdGggY2xhc3M9InMzIiBkPSJtIDAsMjAgNywwIi8+PHBhdGggY2xhc3M9InMxIiBkPSJtIDcsMjAgMywwIi8+PC9nPjxnIGlkPSJkbTEiPjxwYXRoIGNsYXNzPSJzMSIgZD0iTSAwLDIwIDEsMjAgNywwIDEwLDAiLz48L2c+PGcgaWQ9ImRteCI+PHBhdGggY2xhc3M9InMxIiBkPSJNIDEsMjAgNywwIDEwLDAiLz48cGF0aCBjbGFzcz0iczIiIGQ9Ik0gMTAsMTUgNSwyMCIvPjxwYXRoIGNsYXNzPSJzMiIgZD0iTSAxMCwxMCAxLjUsMTguNSIvPjxwYXRoIGNsYXNzPSJzMiIgZD0iTSAxMCw1IDQsMTEiLz48cGF0aCBjbGFzcz0iczIiIGQ9Ik0gMTAsMCA2LDQiLz48cGF0aCBjbGFzcz0iczEiIGQ9Im0gMCwyMCAxMCwwIi8+PC9nPjxnIGlkPSJkbWQiPjxwYXRoIGNsYXNzPSJzMyIgZD0ibSAwLDIwIDEwLDAiLz48L2c+PGcgaWQ9ImRtdSI+PHBhdGggY2xhc3M9InMxIiBkPSJtIDAsMjAgMSwwIEMgMiwxMyA1LDAgMTAsMCIvPjwvZz48ZyBpZD0iZG16Ij48cGF0aCBjbGFzcz0iczEiIGQ9Im0gMCwyMCAxLDAgQyAzLDE0IDcsMTAgMTAsMTAiLz48L2c+PGcgaWQ9InV1dSI+PHBhdGggY2xhc3M9InMzIiBkPSJNIDAsMCAxMCwwIi8+PC9nPjxnIGlkPSJ1bTAiPjxwYXRoIGNsYXNzPSJzMSIgZD0ibSAwLDAgMSwwIDYsMjAgMywwIi8+PC9nPjxnIGlkPSJ1bTEiPjxwYXRoIGNsYXNzPSJzMyIgZD0iTSAwLDAgNywwIi8+PHBhdGggY2xhc3M9InMxIiBkPSJtIDcsMCAzLDAiLz48L2c+PGcgaWQ9InVteCI+PHBhdGggY2xhc3M9InMxIiBkPSJNIDEuNDc3MTU3NCwwIDcsMjAgbCAzLDAiLz48cGF0aCBjbGFzcz0iczEiIGQ9Ik0gMCwwIDEwLDAiLz48cGF0aCBjbGFzcz0iczIiIGQ9Ik0gMTAsMTUgNi41LDE4LjUiLz48cGF0aCBjbGFzcz0iczIiIGQ9Ik0gMTAsMTAgNS41LDE0LjUiLz48cGF0aCBjbGFzcz0iczIiIGQ9Ik0gMTAsNSA0LjUsMTAuNSIvPjxwYXRoIGNsYXNzPSJzMiIgZD0iTSAxMCwwIDMuNSw2LjUiLz48cGF0aCBjbGFzcz0iczIiIGQ9Ik0gMi40NjM2MjEsMi41MzYzNzkgNSwwIi8+PC9nPjxnIGlkPSJ1bWQiPjxwYXRoIGNsYXNzPSJzMSIgZD0ibSAwLDAgMSwwIGMgMSw3IDQsMjAgOSwyMCIvPjwvZz48ZyBpZD0idW11Ij48cGF0aCBjbGFzcz0iczMiIGQ9Ik0gMCwwIDEwLDAiLz48L2c+PGcgaWQ9InVteiI+PHBhdGggY2xhc3M9InM0IiBkPSJtIDAsMCAxLDAgYyAyLDYgNiwxMCA5LDEwIi8+PC9nPjxnIGlkPSJ6enoiPjxwYXRoIGNsYXNzPSJzMSIgZD0ibSAwLDEwIDEwLDAiLz48L2c+PGcgaWQ9InptMCI+PHBhdGggY2xhc3M9InMxIiBkPSJtIDAsMTAgMSwwIDQsMTAgNSwwIi8+PC9nPjxnIGlkPSJ6bTEiPjxwYXRoIGNsYXNzPSJzMSIgZD0iTSAwLDEwIDEsMTAgNSwwIDEwLDAiLz48L2c+PGcgaWQ9InpteCI+PHBhdGggY2xhc3M9InMxIiBkPSJtIDEsMTAgNCwxMCA1LDAiLz48cGF0aCBjbGFzcz0iczEiIGQ9Ik0gMCwxMCAxLDEwIDUsMCAxMCwwIi8+PHBhdGggY2xhc3M9InMyIiBkPSJNIDEwLDE1IDUsMjAiLz48cGF0aCBjbGFzcz0iczIiIGQ9Ik0gMTAsMTAgNCwxNiIvPjxwYXRoIGNsYXNzPSJzMiIgZD0iTSAxMCw1IDIuNSwxMi41Ii8+PHBhdGggY2xhc3M9InMyIiBkPSJNIDEwLDAgMiw4Ii8+PC9nPjxnIGlkPSJ6bWQiPjxwYXRoIGNsYXNzPSJzMSIgZD0ibSAwLDEwIDEsMCBjIDIsNiA2LDEwIDksMTAiLz48L2c+PGcgaWQ9InptdSI+PHBhdGggY2xhc3M9InMxIiBkPSJtIDAsMTAgMSwwIEMgMyw0IDcsMCAxMCwwIi8+PC9nPjxnIGlkPSJ6bXoiPjxwYXRoIGNsYXNzPSJzMSIgZD0ibSAwLDEwIDEwLDAiLz48L2c+PGcgaWQ9ImdhcCI+PHBhdGggY2xhc3M9InM1IiBkPSJtIDcsLTIgLTQsMCBjIC01LDAgLTUsMjQgLTEwLDI0IGwgNCwwIEMgMiwyMiAyLC0yIDcsLTIgeiIvPjxwYXRoIGNsYXNzPSJzMSIgZD0iTSAtNywyMiBDIC0yLDIyIC0yLC0yIDMsLTIiLz48cGF0aCBjbGFzcz0iczEiIGQ9Ik0gLTMsMjIgQyAyLDIyIDIsLTIgNywtMiIvPjwvZz48ZyBpZD0iUGNsayI+PHBhdGggY2xhc3M9InM2IiBkPSJNIC0zLDEyIDAsMyAzLDEyIEMgMSwxMSAtMSwxMSAtMywxMiB6Ii8+PHBhdGggY2xhc3M9InMxIiBkPSJNIDAsMjAgMCwwIDEwLDAiLz48L2c+PGcgaWQ9Ik5jbGsiPjxwYXRoIGNsYXNzPSJzNiIgZD0iTSAtMyw4IDAsMTcgMyw4IEMgMSw5IC0xLDkgLTMsOCB6Ii8+PHBhdGggY2xhc3M9InMxIiBkPSJtIDAsMCAwLDIwIDEwLDAiLz48L2c+PGcgaWQ9IjBtdi0yIj48cGF0aCBjbGFzcz0iczciIGQ9Im0gNywwIDMsMCAwLDIwIC05LDAgeiIvPjxwYXRoIGNsYXNzPSJzMSIgZD0iTSAxLDIwIDcsMCAxMCwwIi8+PHBhdGggY2xhc3M9InMxIiBkPSJtIDAsMjAgMTAsMCIvPjwvZz48ZyBpZD0iMW12LTIiPjxwYXRoIGNsYXNzPSJzNyIgZD0ibSAxLDAgOSwwIDAsMjAgLTMsMCB6Ii8+PHBhdGggY2xhc3M9InMxIiBkPSJtIDEsMCA2LDIwIDMsMCIvPjxwYXRoIGNsYXNzPSJzMSIgZD0iTSAwLDAgMTAsMCIvPjwvZz48ZyBpZD0ieG12LTIiPjxwYXRoIGNsYXNzPSJzNyIgZD0iTSA3LDAgMTAsMCAxMCwyMCA3LDIwIDQsMTAgeiIvPjxwYXRoIGNsYXNzPSJzMSIgZD0iTSAwLDIwIDEsMjAgNywwIDEwLDAiLz48cGF0aCBjbGFzcz0iczEiIGQ9Im0gMCwwIDEsMCA2LDIwIDMsMCIvPjxwYXRoIGNsYXNzPSJzMiIgZD0iTSAwLDUgMiwzIi8+PHBhdGggY2xhc3M9InMyIiBkPSJNIDAsMTAgMyw3Ii8+PHBhdGggY2xhc3M9InMyIiBkPSJNIDAsMTUgMywxMiIvPjxwYXRoIGNsYXNzPSJzMiIgZD0iTSAwLDIwIDEsMTkiLz48L2c+PGcgaWQ9ImRtdi0yIj48cGF0aCBjbGFzcz0iczciIGQ9Im0gNywwIDMsMCAwLDIwIC05LDAgeiIvPjxwYXRoIGNsYXNzPSJzMSIgZD0iTSAxLDIwIDcsMCAxMCwwIi8+PHBhdGggY2xhc3M9InMxIiBkPSJtIDAsMjAgMTAsMCIvPjwvZz48ZyBpZD0idW12LTIiPjxwYXRoIGNsYXNzPSJzNyIgZD0ibSAxLDAgOSwwIDAsMjAgLTMsMCB6Ii8+PHBhdGggY2xhc3M9InMxIiBkPSJtIDEsMCA2LDIwIDMsMCIvPjxwYXRoIGNsYXNzPSJzMSIgZD0iTSAwLDAgMTAsMCIvPjwvZz48ZyBpZD0iem12LTIiPjxwYXRoIGNsYXNzPSJzNyIgZD0iTSA1LDAgMTAsMCAxMCwyMCA1LDIwIDEsMTAgeiIvPjxwYXRoIGNsYXNzPSJzMSIgZD0ibSAxLDEwIDQsMTAgNSwwIi8+PHBhdGggY2xhc3M9InMxIiBkPSJNIDAsMTAgMSwxMCA1LDAgMTAsMCIvPjwvZz48ZyBpZD0idnZ2LTIiPjxwYXRoIGNsYXNzPSJzNyIgZD0iTSAxMCwyMCAwLDIwIDAsMCAxMCwwIi8+PHBhdGggY2xhc3M9InMxIiBkPSJtIDAsMjAgMTAsMCIvPjxwYXRoIGNsYXNzPSJzMSIgZD0iTSAwLDAgMTAsMCIvPjwvZz48ZyBpZD0idm0wLTIiPjxwYXRoIGNsYXNzPSJzNyIgZD0ibSAwLDIwIDAsLTIwIDEuMDAwNjg3LC0wLjAwMzkxIDYsMjAiLz48cGF0aCBjbGFzcz0iczEiIGQ9Im0gMCwwIDEuMDAwNjg3LC0wLjAwMzkxIDYsMjAiLz48cGF0aCBjbGFzcz0iczEiIGQ9Im0gMCwyMCAxMC4wMDA2ODcsLTAuMDAzOSIvPjwvZz48ZyBpZD0idm0xLTIiPjxwYXRoIGNsYXNzPSJzNyIgZD0iTSAwLDAgMCwyMCAxLDIwIDcsMCIvPjxwYXRoIGNsYXNzPSJzMSIgZD0iTSAwLDAgMTAsMCIvPjxwYXRoIGNsYXNzPSJzMSIgZD0iTSAwLDIwIDEsMjAgNywwIi8+PC9nPjxnIGlkPSJ2bXgtMiI+PHBhdGggY2xhc3M9InM3IiBkPSJNIDAsMCAwLDIwIDEsMjAgNCwxMCAxLDAiLz48cGF0aCBjbGFzcz0iczEiIGQ9Im0gMCwwIDEsMCA2LDIwIDMsMCIvPjxwYXRoIGNsYXNzPSJzMSIgZD0iTSAwLDIwIDEsMjAgNywwIDEwLDAiLz48cGF0aCBjbGFzcz0iczIiIGQ9Ik0gMTAsMTUgNi41LDE4LjUiLz48cGF0aCBjbGFzcz0iczIiIGQ9Ik0gMTAsMTAgNS41LDE0LjUiLz48cGF0aCBjbGFzcz0iczIiIGQ9Ik0gMTAsNSA0LDExIi8+PHBhdGggY2xhc3M9InMyIiBkPSJNIDEwLDAgNiw0Ii8+PC9nPjxnIGlkPSJ2bWQtMiI+PHBhdGggY2xhc3M9InM3IiBkPSJtIDAsMCAwLDIwIDEwLDAgQyA1LDIwIDIsNyAxLDAiLz48cGF0aCBjbGFzcz0iczEiIGQ9Im0gMCwwIDEsMCBjIDEsNyA0LDIwIDksMjAiLz48cGF0aCBjbGFzcz0iczEiIGQ9Im0gMCwyMCAxMCwwIi8+PC9nPjxnIGlkPSJ2bXUtMiI+PHBhdGggY2xhc3M9InM3IiBkPSJtIDAsMCAwLDIwIDEsMCBDIDIsMTMgNSwwIDEwLDAiLz48cGF0aCBjbGFzcz0iczEiIGQ9Im0gMCwyMCAxLDAgQyAyLDEzIDUsMCAxMCwwIi8+PHBhdGggY2xhc3M9InMxIiBkPSJNIDAsMCAxMCwwIi8+PC9nPjxnIGlkPSJ2bXotMiI+PHBhdGggY2xhc3M9InM3IiBkPSJNIDAsMCAxLDAgQyAzLDYgNywxMCAxMCwxMCA3LDEwIDMsMTQgMSwyMCBMIDAsMjAiLz48cGF0aCBjbGFzcz0iczEiIGQ9Im0gMCwwIDEsMCBjIDIsNiA2LDEwIDksMTAiLz48cGF0aCBjbGFzcz0iczEiIGQ9Im0gMCwyMCAxLDAgQyAzLDE0IDcsMTAgMTAsMTAiLz48L2c+PGcgaWQ9IjBtdi0zIj48cGF0aCBjbGFzcz0iczgiIGQ9Im0gNywwIDMsMCAwLDIwIC05LDAgeiIvPjxwYXRoIGNsYXNzPSJzMSIgZD0iTSAxLDIwIDcsMCAxMCwwIi8+PHBhdGggY2xhc3M9InMxIiBkPSJtIDAsMjAgMTAsMCIvPjwvZz48ZyBpZD0iMW12LTMiPjxwYXRoIGNsYXNzPSJzOCIgZD0ibSAxLDAgOSwwIDAsMjAgLTMsMCB6Ii8+PHBhdGggY2xhc3M9InMxIiBkPSJtIDEsMCA2LDIwIDMsMCIvPjxwYXRoIGNsYXNzPSJzMSIgZD0iTSAwLDAgMTAsMCIvPjwvZz48ZyBpZD0ieG12LTMiPjxwYXRoIGNsYXNzPSJzOCIgZD0iTSA3LDAgMTAsMCAxMCwyMCA3LDIwIDQsMTAgeiIvPjxwYXRoIGNsYXNzPSJzMSIgZD0iTSAwLDIwIDEsMjAgNywwIDEwLDAiLz48cGF0aCBjbGFzcz0iczEiIGQ9Im0gMCwwIDEsMCA2LDIwIDMsMCIvPjxwYXRoIGNsYXNzPSJzMiIgZD0iTSAwLDUgMiwzIi8+PHBhdGggY2xhc3M9InMyIiBkPSJNIDAsMTAgMyw3Ii8+PHBhdGggY2xhc3M9InMyIiBkPSJNIDAsMTUgMywxMiIvPjxwYXRoIGNsYXNzPSJzMiIgZD0iTSAwLDIwIDEsMTkiLz48L2c+PGcgaWQ9ImRtdi0zIj48cGF0aCBjbGFzcz0iczgiIGQ9Im0gNywwIDMsMCAwLDIwIC05LDAgeiIvPjxwYXRoIGNsYXNzPSJzMSIgZD0iTSAxLDIwIDcsMCAxMCwwIi8+PHBhdGggY2xhc3M9InMxIiBkPSJtIDAsMjAgMTAsMCIvPjwvZz48ZyBpZD0idW12LTMiPjxwYXRoIGNsYXNzPSJzOCIgZD0ibSAxLDAgOSwwIDAsMjAgLTMsMCB6Ii8+PHBhdGggY2xhc3M9InMxIiBkPSJtIDEsMCA2LDIwIDMsMCIvPjxwYXRoIGNsYXNzPSJzMSIgZD0iTSAwLDAgMTAsMCIvPjwvZz48ZyBpZD0iem12LTMiPjxwYXRoIGNsYXNzPSJzOCIgZD0iTSA1LDAgMTAsMCAxMCwyMCA1LDIwIDEsMTAgeiIvPjxwYXRoIGNsYXNzPSJzMSIgZD0ibSAxLDEwIDQsMTAgNSwwIi8+PHBhdGggY2xhc3M9InMxIiBkPSJNIDAsMTAgMSwxMCA1LDAgMTAsMCIvPjwvZz48ZyBpZD0idnZ2LTMiPjxwYXRoIGNsYXNzPSJzOCIgZD0iTSAxMCwyMCAwLDIwIDAsMCAxMCwwIi8+PHBhdGggY2xhc3M9InMxIiBkPSJtIDAsMjAgMTAsMCIvPjxwYXRoIGNsYXNzPSJzMSIgZD0iTSAwLDAgMTAsMCIvPjwvZz48ZyBpZD0idm0wLTMiPjxwYXRoIGNsYXNzPSJzOCIgZD0ibSAwLDIwIDAsLTIwIDEuMDAwNjg3LC0wLjAwMzkxIDYsMjAiLz48cGF0aCBjbGFzcz0iczEiIGQ9Im0gMCwwIDEuMDAwNjg3LC0wLjAwMzkxIDYsMjAiLz48cGF0aCBjbGFzcz0iczEiIGQ9Im0gMCwyMCAxMC4wMDA2ODcsLTAuMDAzOSIvPjwvZz48ZyBpZD0idm0xLTMiPjxwYXRoIGNsYXNzPSJzOCIgZD0iTSAwLDAgMCwyMCAxLDIwIDcsMCIvPjxwYXRoIGNsYXNzPSJzMSIgZD0iTSAwLDAgMTAsMCIvPjxwYXRoIGNsYXNzPSJzMSIgZD0iTSAwLDIwIDEsMjAgNywwIi8+PC9nPjxnIGlkPSJ2bXgtMyI+PHBhdGggY2xhc3M9InM4IiBkPSJNIDAsMCAwLDIwIDEsMjAgNCwxMCAxLDAiLz48cGF0aCBjbGFzcz0iczEiIGQ9Im0gMCwwIDEsMCA2LDIwIDMsMCIvPjxwYXRoIGNsYXNzPSJzMSIgZD0iTSAwLDIwIDEsMjAgNywwIDEwLDAiLz48cGF0aCBjbGFzcz0iczIiIGQ9Ik0gMTAsMTUgNi41LDE4LjUiLz48cGF0aCBjbGFzcz0iczIiIGQ9Ik0gMTAsMTAgNS41LDE0LjUiLz48cGF0aCBjbGFzcz0iczIiIGQ9Ik0gMTAsNSA0LDExIi8+PHBhdGggY2xhc3M9InMyIiBkPSJNIDEwLDAgNiw0Ii8+PC9nPjxnIGlkPSJ2bWQtMyI+PHBhdGggY2xhc3M9InM4IiBkPSJtIDAsMCAwLDIwIDEwLDAgQyA1LDIwIDIsNyAxLDAiLz48cGF0aCBjbGFzcz0iczEiIGQ9Im0gMCwwIDEsMCBjIDEsNyA0LDIwIDksMjAiLz48cGF0aCBjbGFzcz0iczEiIGQ9Im0gMCwyMCAxMCwwIi8+PC9nPjxnIGlkPSJ2bXUtMyI+PHBhdGggY2xhc3M9InM4IiBkPSJtIDAsMCAwLDIwIDEsMCBDIDIsMTMgNSwwIDEwLDAiLz48cGF0aCBjbGFzcz0iczEiIGQ9Im0gMCwyMCAxLDAgQyAyLDEzIDUsMCAxMCwwIi8+PHBhdGggY2xhc3M9InMxIiBkPSJNIDAsMCAxMCwwIi8+PC9nPjxnIGlkPSJ2bXotMyI+PHBhdGggY2xhc3M9InM4IiBkPSJNIDAsMCAxLDAgQyAzLDYgNywxMCAxMCwxMCA3LDEwIDMsMTQgMSwyMCBMIDAsMjAiLz48cGF0aCBjbGFzcz0iczEiIGQ9Im0gMCwwIDEsMCBjIDIsNiA2LDEwIDksMTAiLz48cGF0aCBjbGFzcz0iczEiIGQ9Im0gMCwyMCAxLDAgQyAzLDE0IDcsMTAgMTAsMTAiLz48L2c+PGcgaWQ9IjBtdi00Ij48cGF0aCBjbGFzcz0iczkiIGQ9Im0gNywwIDMsMCAwLDIwIC05LDAgeiIvPjxwYXRoIGNsYXNzPSJzMSIgZD0iTSAxLDIwIDcsMCAxMCwwIi8+PHBhdGggY2xhc3M9InMxIiBkPSJtIDAsMjAgMTAsMCIvPjwvZz48ZyBpZD0iMW12LTQiPjxwYXRoIGNsYXNzPSJzOSIgZD0ibSAxLDAgOSwwIDAsMjAgLTMsMCB6Ii8+PHBhdGggY2xhc3M9InMxIiBkPSJtIDEsMCA2LDIwIDMsMCIvPjxwYXRoIGNsYXNzPSJzMSIgZD0iTSAwLDAgMTAsMCIvPjwvZz48ZyBpZD0ieG12LTQiPjxwYXRoIGNsYXNzPSJzOSIgZD0iTSA3LDAgMTAsMCAxMCwyMCA3LDIwIDQsMTAgeiIvPjxwYXRoIGNsYXNzPSJzMSIgZD0iTSAwLDIwIDEsMjAgNywwIDEwLDAiLz48cGF0aCBjbGFzcz0iczEiIGQ9Im0gMCwwIDEsMCA2LDIwIDMsMCIvPjxwYXRoIGNsYXNzPSJzMiIgZD0iTSAwLDUgMiwzIi8+PHBhdGggY2xhc3M9InMyIiBkPSJNIDAsMTAgMyw3Ii8+PHBhdGggY2xhc3M9InMyIiBkPSJNIDAsMTUgMywxMiIvPjxwYXRoIGNsYXNzPSJzMiIgZD0iTSAwLDIwIDEsMTkiLz48L2c+PGcgaWQ9ImRtdi00Ij48cGF0aCBjbGFzcz0iczkiIGQ9Im0gNywwIDMsMCAwLDIwIC05LDAgeiIvPjxwYXRoIGNsYXNzPSJzMSIgZD0iTSAxLDIwIDcsMCAxMCwwIi8+PHBhdGggY2xhc3M9InMxIiBkPSJtIDAsMjAgMTAsMCIvPjwvZz48ZyBpZD0idW12LTQiPjxwYXRoIGNsYXNzPSJzOSIgZD0ibSAxLDAgOSwwIDAsMjAgLTMsMCB6Ii8+PHBhdGggY2xhc3M9InMxIiBkPSJtIDEsMCA2LDIwIDMsMCIvPjxwYXRoIGNsYXNzPSJzMSIgZD0iTSAwLDAgMTAsMCIvPjwvZz48ZyBpZD0iem12LTQiPjxwYXRoIGNsYXNzPSJzOSIgZD0iTSA1LDAgMTAsMCAxMCwyMCA1LDIwIDEsMTAgeiIvPjxwYXRoIGNsYXNzPSJzMSIgZD0ibSAxLDEwIDQsMTAgNSwwIi8+PHBhdGggY2xhc3M9InMxIiBkPSJNIDAsMTAgMSwxMCA1LDAgMTAsMCIvPjwvZz48ZyBpZD0idnZ2LTQiPjxwYXRoIGNsYXNzPSJzOSIgZD0iTSAxMCwyMCAwLDIwIDAsMCAxMCwwIi8+PHBhdGggY2xhc3M9InMxIiBkPSJtIDAsMjAgMTAsMCIvPjxwYXRoIGNsYXNzPSJzMSIgZD0iTSAwLDAgMTAsMCIvPjwvZz48ZyBpZD0idm0wLTQiPjxwYXRoIGNsYXNzPSJzOSIgZD0ibSAwLDIwIDAsLTIwIDEuMDAwNjg3LC0wLjAwMzkxIDYsMjAiLz48cGF0aCBjbGFzcz0iczEiIGQ9Im0gMCwwIDEuMDAwNjg3LC0wLjAwMzkxIDYsMjAiLz48cGF0aCBjbGFzcz0iczEiIGQ9Im0gMCwyMCAxMC4wMDA2ODcsLTAuMDAzOSIvPjwvZz48ZyBpZD0idm0xLTQiPjxwYXRoIGNsYXNzPSJzOSIgZD0iTSAwLDAgMCwyMCAxLDIwIDcsMCIvPjxwYXRoIGNsYXNzPSJzMSIgZD0iTSAwLDAgMTAsMCIvPjxwYXRoIGNsYXNzPSJzMSIgZD0iTSAwLDIwIDEsMjAgNywwIi8+PC9nPjxnIGlkPSJ2bXgtNCI+PHBhdGggY2xhc3M9InM5IiBkPSJNIDAsMCAwLDIwIDEsMjAgNCwxMCAxLDAiLz48cGF0aCBjbGFzcz0iczEiIGQ9Im0gMCwwIDEsMCA2LDIwIDMsMCIvPjxwYXRoIGNsYXNzPSJzMSIgZD0iTSAwLDIwIDEsMjAgNywwIDEwLDAiLz48cGF0aCBjbGFzcz0iczIiIGQ9Ik0gMTAsMTUgNi41LDE4LjUiLz48cGF0aCBjbGFzcz0iczIiIGQ9Ik0gMTAsMTAgNS41LDE0LjUiLz48cGF0aCBjbGFzcz0iczIiIGQ9Ik0gMTAsNSA0LDExIi8+PHBhdGggY2xhc3M9InMyIiBkPSJNIDEwLDAgNiw0Ii8+PC9nPjxnIGlkPSJ2bWQtNCI+PHBhdGggY2xhc3M9InM5IiBkPSJtIDAsMCAwLDIwIDEwLDAgQyA1LDIwIDIsNyAxLDAiLz48cGF0aCBjbGFzcz0iczEiIGQ9Im0gMCwwIDEsMCBjIDEsNyA0LDIwIDksMjAiLz48cGF0aCBjbGFzcz0iczEiIGQ9Im0gMCwyMCAxMCwwIi8+PC9nPjxnIGlkPSJ2bXUtNCI+PHBhdGggY2xhc3M9InM5IiBkPSJtIDAsMCAwLDIwIDEsMCBDIDIsMTMgNSwwIDEwLDAiLz48cGF0aCBjbGFzcz0iczEiIGQ9Im0gMCwyMCAxLDAgQyAyLDEzIDUsMCAxMCwwIi8+PHBhdGggY2xhc3M9InMxIiBkPSJNIDAsMCAxMCwwIi8+PC9nPjxnIGlkPSJ2bXotNCI+PHBhdGggY2xhc3M9InM5IiBkPSJNIDAsMCAxLDAgQyAzLDYgNywxMCAxMCwxMCA3LDEwIDMsMTQgMSwyMCBMIDAsMjAiLz48cGF0aCBjbGFzcz0iczEiIGQ9Im0gMCwwIDEsMCBjIDIsNiA2LDEwIDksMTAiLz48cGF0aCBjbGFzcz0iczEiIGQ9Im0gMCwyMCAxLDAgQyAzLDE0IDcsMTAgMTAsMTAiLz48L2c+PGcgaWQ9IjBtdi01Ij48cGF0aCBjbGFzcz0iczEwIiBkPSJtIDcsMCAzLDAgMCwyMCAtOSwwIHoiLz48cGF0aCBjbGFzcz0iczEiIGQ9Ik0gMSwyMCA3LDAgMTAsMCIvPjxwYXRoIGNsYXNzPSJzMSIgZD0ibSAwLDIwIDEwLDAiLz48L2c+PGcgaWQ9IjFtdi01Ij48cGF0aCBjbGFzcz0iczEwIiBkPSJtIDEsMCA5LDAgMCwyMCAtMywwIHoiLz48cGF0aCBjbGFzcz0iczEiIGQ9Im0gMSwwIDYsMjAgMywwIi8+PHBhdGggY2xhc3M9InMxIiBkPSJNIDAsMCAxMCwwIi8+PC9nPjxnIGlkPSJ4bXYtNSI+PHBhdGggY2xhc3M9InMxMCIgZD0iTSA3LDAgMTAsMCAxMCwyMCA3LDIwIDQsMTAgeiIvPjxwYXRoIGNsYXNzPSJzMSIgZD0iTSAwLDIwIDEsMjAgNywwIDEwLDAiLz48cGF0aCBjbGFzcz0iczEiIGQ9Im0gMCwwIDEsMCA2LDIwIDMsMCIvPjxwYXRoIGNsYXNzPSJzMiIgZD0iTSAwLDUgMiwzIi8+PHBhdGggY2xhc3M9InMyIiBkPSJNIDAsMTAgMyw3Ii8+PHBhdGggY2xhc3M9InMyIiBkPSJNIDAsMTUgMywxMiIvPjxwYXRoIGNsYXNzPSJzMiIgZD0iTSAwLDIwIDEsMTkiLz48L2c+PGcgaWQ9ImRtdi01Ij48cGF0aCBjbGFzcz0iczEwIiBkPSJtIDcsMCAzLDAgMCwyMCAtOSwwIHoiLz48cGF0aCBjbGFzcz0iczEiIGQ9Ik0gMSwyMCA3LDAgMTAsMCIvPjxwYXRoIGNsYXNzPSJzMSIgZD0ibSAwLDIwIDEwLDAiLz48L2c+PGcgaWQ9InVtdi01Ij48cGF0aCBjbGFzcz0iczEwIiBkPSJtIDEsMCA5LDAgMCwyMCAtMywwIHoiLz48cGF0aCBjbGFzcz0iczEiIGQ9Im0gMSwwIDYsMjAgMywwIi8+PHBhdGggY2xhc3M9InMxIiBkPSJNIDAsMCAxMCwwIi8+PC9nPjxnIGlkPSJ6bXYtNSI+PHBhdGggY2xhc3M9InMxMCIgZD0iTSA1LDAgMTAsMCAxMCwyMCA1LDIwIDEsMTAgeiIvPjxwYXRoIGNsYXNzPSJzMSIgZD0ibSAxLDEwIDQsMTAgNSwwIi8+PHBhdGggY2xhc3M9InMxIiBkPSJNIDAsMTAgMSwxMCA1LDAgMTAsMCIvPjwvZz48ZyBpZD0idnZ2LTUiPjxwYXRoIGNsYXNzPSJzMTAiIGQ9Ik0gMTAsMjAgMCwyMCAwLDAgMTAsMCIvPjxwYXRoIGNsYXNzPSJzMSIgZD0ibSAwLDIwIDEwLDAiLz48cGF0aCBjbGFzcz0iczEiIGQ9Ik0gMCwwIDEwLDAiLz48L2c+PGcgaWQ9InZtMC01Ij48cGF0aCBjbGFzcz0iczEwIiBkPSJtIDAsMjAgMCwtMjAgMS4wMDA2ODcsLTAuMDAzOTEgNiwyMCIvPjxwYXRoIGNsYXNzPSJzMSIgZD0ibSAwLDAgMS4wMDA2ODcsLTAuMDAzOTEgNiwyMCIvPjxwYXRoIGNsYXNzPSJzMSIgZD0ibSAwLDIwIDEwLjAwMDY4NywtMC4wMDM5Ii8+PC9nPjxnIGlkPSJ2bTEtNSI+PHBhdGggY2xhc3M9InMxMCIgZD0iTSAwLDAgMCwyMCAxLDIwIDcsMCIvPjxwYXRoIGNsYXNzPSJzMSIgZD0iTSAwLDAgMTAsMCIvPjxwYXRoIGNsYXNzPSJzMSIgZD0iTSAwLDIwIDEsMjAgNywwIi8+PC9nPjxnIGlkPSJ2bXgtNSI+PHBhdGggY2xhc3M9InMxMCIgZD0iTSAwLDAgMCwyMCAxLDIwIDQsMTAgMSwwIi8+PHBhdGggY2xhc3M9InMxIiBkPSJtIDAsMCAxLDAgNiwyMCAzLDAiLz48cGF0aCBjbGFzcz0iczEiIGQ9Ik0gMCwyMCAxLDIwIDcsMCAxMCwwIi8+PHBhdGggY2xhc3M9InMyIiBkPSJNIDEwLDE1IDYuNSwxOC41Ii8+PHBhdGggY2xhc3M9InMyIiBkPSJNIDEwLDEwIDUuNSwxNC41Ii8+PHBhdGggY2xhc3M9InMyIiBkPSJNIDEwLDUgNCwxMSIvPjxwYXRoIGNsYXNzPSJzMiIgZD0iTSAxMCwwIDYsNCIvPjwvZz48ZyBpZD0idm1kLTUiPjxwYXRoIGNsYXNzPSJzMTAiIGQ9Im0gMCwwIDAsMjAgMTAsMCBDIDUsMjAgMiw3IDEsMCIvPjxwYXRoIGNsYXNzPSJzMSIgZD0ibSAwLDAgMSwwIGMgMSw3IDQsMjAgOSwyMCIvPjxwYXRoIGNsYXNzPSJzMSIgZD0ibSAwLDIwIDEwLDAiLz48L2c+PGcgaWQ9InZtdS01Ij48cGF0aCBjbGFzcz0iczEwIiBkPSJtIDAsMCAwLDIwIDEsMCBDIDIsMTMgNSwwIDEwLDAiLz48cGF0aCBjbGFzcz0iczEiIGQ9Im0gMCwyMCAxLDAgQyAyLDEzIDUsMCAxMCwwIi8+PHBhdGggY2xhc3M9InMxIiBkPSJNIDAsMCAxMCwwIi8+PC9nPjxnIGlkPSJ2bXotNSI+PHBhdGggY2xhc3M9InMxMCIgZD0iTSAwLDAgMSwwIEMgMyw2IDcsMTAgMTAsMTAgNywxMCAzLDE0IDEsMjAgTCAwLDIwIi8+PHBhdGggY2xhc3M9InMxIiBkPSJtIDAsMCAxLDAgYyAyLDYgNiwxMCA5LDEwIi8+PHBhdGggY2xhc3M9InMxIiBkPSJtIDAsMjAgMSwwIEMgMywxNCA3LDEwIDEwLDEwIi8+PC9nPjxnIGlkPSIwbXYtNiI+PHBhdGggY2xhc3M9InMxMSIgZD0ibSA3LDAgMywwIDAsMjAgLTksMCB6Ii8+PHBhdGggY2xhc3M9InMxIiBkPSJNIDEsMjAgNywwIDEwLDAiLz48cGF0aCBjbGFzcz0iczEiIGQ9Im0gMCwyMCAxMCwwIi8+PC9nPjxnIGlkPSIxbXYtNiI+PHBhdGggY2xhc3M9InMxMSIgZD0ibSAxLDAgOSwwIDAsMjAgLTMsMCB6Ii8+PHBhdGggY2xhc3M9InMxIiBkPSJtIDEsMCA2LDIwIDMsMCIvPjxwYXRoIGNsYXNzPSJzMSIgZD0iTSAwLDAgMTAsMCIvPjwvZz48ZyBpZD0ieG12LTYiPjxwYXRoIGNsYXNzPSJzMTEiIGQ9Ik0gNywwIDEwLDAgMTAsMjAgNywyMCA0LDEwIHoiLz48cGF0aCBjbGFzcz0iczEiIGQ9Ik0gMCwyMCAxLDIwIDcsMCAxMCwwIi8+PHBhdGggY2xhc3M9InMxIiBkPSJtIDAsMCAxLDAgNiwyMCAzLDAiLz48cGF0aCBjbGFzcz0iczIiIGQ9Ik0gMCw1IDIsMyIvPjxwYXRoIGNsYXNzPSJzMiIgZD0iTSAwLDEwIDMsNyIvPjxwYXRoIGNsYXNzPSJzMiIgZD0iTSAwLDE1IDMsMTIiLz48cGF0aCBjbGFzcz0iczIiIGQ9Ik0gMCwyMCAxLDE5Ii8+PC9nPjxnIGlkPSJkbXYtNiI+PHBhdGggY2xhc3M9InMxMSIgZD0ibSA3LDAgMywwIDAsMjAgLTksMCB6Ii8+PHBhdGggY2xhc3M9InMxIiBkPSJNIDEsMjAgNywwIDEwLDAiLz48cGF0aCBjbGFzcz0iczEiIGQ9Im0gMCwyMCAxMCwwIi8+PC9nPjxnIGlkPSJ1bXYtNiI+PHBhdGggY2xhc3M9InMxMSIgZD0ibSAxLDAgOSwwIDAsMjAgLTMsMCB6Ii8+PHBhdGggY2xhc3M9InMxIiBkPSJtIDEsMCA2LDIwIDMsMCIvPjxwYXRoIGNsYXNzPSJzMSIgZD0iTSAwLDAgMTAsMCIvPjwvZz48ZyBpZD0iem12LTYiPjxwYXRoIGNsYXNzPSJzMTEiIGQ9Ik0gNSwwIDEwLDAgMTAsMjAgNSwyMCAxLDEwIHoiLz48cGF0aCBjbGFzcz0iczEiIGQ9Im0gMSwxMCA0LDEwIDUsMCIvPjxwYXRoIGNsYXNzPSJzMSIgZD0iTSAwLDEwIDEsMTAgNSwwIDEwLDAiLz48L2c+PGcgaWQ9InZ2di02Ij48cGF0aCBjbGFzcz0iczExIiBkPSJNIDEwLDIwIDAsMjAgMCwwIDEwLDAiLz48cGF0aCBjbGFzcz0iczEiIGQ9Im0gMCwyMCAxMCwwIi8+PHBhdGggY2xhc3M9InMxIiBkPSJNIDAsMCAxMCwwIi8+PC9nPjxnIGlkPSJ2bTAtNiI+PHBhdGggY2xhc3M9InMxMSIgZD0ibSAwLDIwIDAsLTIwIDEuMDAwNjg3LC0wLjAwMzkxIDYsMjAiLz48cGF0aCBjbGFzcz0iczEiIGQ9Im0gMCwwIDEuMDAwNjg3LC0wLjAwMzkxIDYsMjAiLz48cGF0aCBjbGFzcz0iczEiIGQ9Im0gMCwyMCAxMC4wMDA2ODcsLTAuMDAzOSIvPjwvZz48ZyBpZD0idm0xLTYiPjxwYXRoIGNsYXNzPSJzMTEiIGQ9Ik0gMCwwIDAsMjAgMSwyMCA3LDAiLz48cGF0aCBjbGFzcz0iczEiIGQ9Ik0gMCwwIDEwLDAiLz48cGF0aCBjbGFzcz0iczEiIGQ9Ik0gMCwyMCAxLDIwIDcsMCIvPjwvZz48ZyBpZD0idm14LTYiPjxwYXRoIGNsYXNzPSJzMTEiIGQ9Ik0gMCwwIDAsMjAgMSwyMCA0LDEwIDEsMCIvPjxwYXRoIGNsYXNzPSJzMSIgZD0ibSAwLDAgMSwwIDYsMjAgMywwIi8+PHBhdGggY2xhc3M9InMxIiBkPSJNIDAsMjAgMSwyMCA3LDAgMTAsMCIvPjxwYXRoIGNsYXNzPSJzMiIgZD0iTSAxMCwxNSA2LjUsMTguNSIvPjxwYXRoIGNsYXNzPSJzMiIgZD0iTSAxMCwxMCA1LjUsMTQuNSIvPjxwYXRoIGNsYXNzPSJzMiIgZD0iTSAxMCw1IDQsMTEiLz48cGF0aCBjbGFzcz0iczIiIGQ9Ik0gMTAsMCA2LDQiLz48L2c+PGcgaWQ9InZtZC02Ij48cGF0aCBjbGFzcz0iczExIiBkPSJtIDAsMCAwLDIwIDEwLDAgQyA1LDIwIDIsNyAxLDAiLz48cGF0aCBjbGFzcz0iczEiIGQ9Im0gMCwwIDEsMCBjIDEsNyA0LDIwIDksMjAiLz48cGF0aCBjbGFzcz0iczEiIGQ9Im0gMCwyMCAxMCwwIi8+PC9nPjxnIGlkPSJ2bXUtNiI+PHBhdGggY2xhc3M9InMxMSIgZD0ibSAwLDAgMCwyMCAxLDAgQyAyLDEzIDUsMCAxMCwwIi8+PHBhdGggY2xhc3M9InMxIiBkPSJtIDAsMjAgMSwwIEMgMiwxMyA1LDAgMTAsMCIvPjxwYXRoIGNsYXNzPSJzMSIgZD0iTSAwLDAgMTAsMCIvPjwvZz48ZyBpZD0idm16LTYiPjxwYXRoIGNsYXNzPSJzMTEiIGQ9Ik0gMCwwIDEsMCBDIDMsNiA3LDEwIDEwLDEwIDcsMTAgMywxNCAxLDIwIEwgMCwyMCIvPjxwYXRoIGNsYXNzPSJzMSIgZD0ibSAwLDAgMSwwIGMgMiw2IDYsMTAgOSwxMCIvPjxwYXRoIGNsYXNzPSJzMSIgZD0ibSAwLDIwIDEsMCBDIDMsMTQgNywxMCAxMCwxMCIvPjwvZz48ZyBpZD0iMG12LTciPjxwYXRoIGNsYXNzPSJzMTIiIGQ9Im0gNywwIDMsMCAwLDIwIC05LDAgeiIvPjxwYXRoIGNsYXNzPSJzMSIgZD0iTSAxLDIwIDcsMCAxMCwwIi8+PHBhdGggY2xhc3M9InMxIiBkPSJtIDAsMjAgMTAsMCIvPjwvZz48ZyBpZD0iMW12LTciPjxwYXRoIGNsYXNzPSJzMTIiIGQ9Im0gMSwwIDksMCAwLDIwIC0zLDAgeiIvPjxwYXRoIGNsYXNzPSJzMSIgZD0ibSAxLDAgNiwyMCAzLDAiLz48cGF0aCBjbGFzcz0iczEiIGQ9Ik0gMCwwIDEwLDAiLz48L2c+PGcgaWQ9Inhtdi03Ij48cGF0aCBjbGFzcz0iczEyIiBkPSJNIDcsMCAxMCwwIDEwLDIwIDcsMjAgNCwxMCB6Ii8+PHBhdGggY2xhc3M9InMxIiBkPSJNIDAsMjAgMSwyMCA3LDAgMTAsMCIvPjxwYXRoIGNsYXNzPSJzMSIgZD0ibSAwLDAgMSwwIDYsMjAgMywwIi8+PHBhdGggY2xhc3M9InMyIiBkPSJNIDAsNSAyLDMiLz48cGF0aCBjbGFzcz0iczIiIGQ9Ik0gMCwxMCAzLDciLz48cGF0aCBjbGFzcz0iczIiIGQ9Ik0gMCwxNSAzLDEyIi8+PHBhdGggY2xhc3M9InMyIiBkPSJNIDAsMjAgMSwxOSIvPjwvZz48ZyBpZD0iZG12LTciPjxwYXRoIGNsYXNzPSJzMTIiIGQ9Im0gNywwIDMsMCAwLDIwIC05LDAgeiIvPjxwYXRoIGNsYXNzPSJzMSIgZD0iTSAxLDIwIDcsMCAxMCwwIi8+PHBhdGggY2xhc3M9InMxIiBkPSJtIDAsMjAgMTAsMCIvPjwvZz48ZyBpZD0idW12LTciPjxwYXRoIGNsYXNzPSJzMTIiIGQ9Im0gMSwwIDksMCAwLDIwIC0zLDAgeiIvPjxwYXRoIGNsYXNzPSJzMSIgZD0ibSAxLDAgNiwyMCAzLDAiLz48cGF0aCBjbGFzcz0iczEiIGQ9Ik0gMCwwIDEwLDAiLz48L2c+PGcgaWQ9Inptdi03Ij48cGF0aCBjbGFzcz0iczEyIiBkPSJNIDUsMCAxMCwwIDEwLDIwIDUsMjAgMSwxMCB6Ii8+PHBhdGggY2xhc3M9InMxIiBkPSJtIDEsMTAgNCwxMCA1LDAiLz48cGF0aCBjbGFzcz0iczEiIGQ9Ik0gMCwxMCAxLDEwIDUsMCAxMCwwIi8+PC9nPjxnIGlkPSJ2dnYtNyI+PHBhdGggY2xhc3M9InMxMiIgZD0iTSAxMCwyMCAwLDIwIDAsMCAxMCwwIi8+PHBhdGggY2xhc3M9InMxIiBkPSJtIDAsMjAgMTAsMCIvPjxwYXRoIGNsYXNzPSJzMSIgZD0iTSAwLDAgMTAsMCIvPjwvZz48ZyBpZD0idm0wLTciPjxwYXRoIGNsYXNzPSJzMTIiIGQ9Im0gMCwyMCAwLC0yMCAxLjAwMDY4NywtMC4wMDM5MSA2LDIwIi8+PHBhdGggY2xhc3M9InMxIiBkPSJtIDAsMCAxLjAwMDY4NywtMC4wMDM5MSA2LDIwIi8+PHBhdGggY2xhc3M9InMxIiBkPSJtIDAsMjAgMTAuMDAwNjg3LC0wLjAwMzkiLz48L2c+PGcgaWQ9InZtMS03Ij48cGF0aCBjbGFzcz0iczEyIiBkPSJNIDAsMCAwLDIwIDEsMjAgNywwIi8+PHBhdGggY2xhc3M9InMxIiBkPSJNIDAsMCAxMCwwIi8+PHBhdGggY2xhc3M9InMxIiBkPSJNIDAsMjAgMSwyMCA3LDAiLz48L2c+PGcgaWQ9InZteC03Ij48cGF0aCBjbGFzcz0iczEyIiBkPSJNIDAsMCAwLDIwIDEsMjAgNCwxMCAxLDAiLz48cGF0aCBjbGFzcz0iczEiIGQ9Im0gMCwwIDEsMCA2LDIwIDMsMCIvPjxwYXRoIGNsYXNzPSJzMSIgZD0iTSAwLDIwIDEsMjAgNywwIDEwLDAiLz48cGF0aCBjbGFzcz0iczIiIGQ9Ik0gMTAsMTUgNi41LDE4LjUiLz48cGF0aCBjbGFzcz0iczIiIGQ9Ik0gMTAsMTAgNS41LDE0LjUiLz48cGF0aCBjbGFzcz0iczIiIGQ9Ik0gMTAsNSA0LDExIi8+PHBhdGggY2xhc3M9InMyIiBkPSJNIDEwLDAgNiw0Ii8+PC9nPjxnIGlkPSJ2bWQtNyI+PHBhdGggY2xhc3M9InMxMiIgZD0ibSAwLDAgMCwyMCAxMCwwIEMgNSwyMCAyLDcgMSwwIi8+PHBhdGggY2xhc3M9InMxIiBkPSJtIDAsMCAxLDAgYyAxLDcgNCwyMCA5LDIwIi8+PHBhdGggY2xhc3M9InMxIiBkPSJtIDAsMjAgMTAsMCIvPjwvZz48ZyBpZD0idm11LTciPjxwYXRoIGNsYXNzPSJzMTIiIGQ9Im0gMCwwIDAsMjAgMSwwIEMgMiwxMyA1LDAgMTAsMCIvPjxwYXRoIGNsYXNzPSJzMSIgZD0ibSAwLDIwIDEsMCBDIDIsMTMgNSwwIDEwLDAiLz48cGF0aCBjbGFzcz0iczEiIGQ9Ik0gMCwwIDEwLDAiLz48L2c+PGcgaWQ9InZtei03Ij48cGF0aCBjbGFzcz0iczEyIiBkPSJNIDAsMCAxLDAgQyAzLDYgNywxMCAxMCwxMCA3LDEwIDMsMTQgMSwyMCBMIDAsMjAiLz48cGF0aCBjbGFzcz0iczEiIGQ9Im0gMCwwIDEsMCBjIDIsNiA2LDEwIDksMTAiLz48cGF0aCBjbGFzcz0iczEiIGQ9Im0gMCwyMCAxLDAgQyAzLDE0IDcsMTAgMTAsMTAiLz48L2c+PGcgaWQ9IjBtdi04Ij48cGF0aCBjbGFzcz0iczEzIiBkPSJtIDcsMCAzLDAgMCwyMCAtOSwwIHoiLz48cGF0aCBjbGFzcz0iczEiIGQ9Ik0gMSwyMCA3LDAgMTAsMCIvPjxwYXRoIGNsYXNzPSJzMSIgZD0ibSAwLDIwIDEwLDAiLz48L2c+PGcgaWQ9IjFtdi04Ij48cGF0aCBjbGFzcz0iczEzIiBkPSJtIDEsMCA5LDAgMCwyMCAtMywwIHoiLz48cGF0aCBjbGFzcz0iczEiIGQ9Im0gMSwwIDYsMjAgMywwIi8+PHBhdGggY2xhc3M9InMxIiBkPSJNIDAsMCAxMCwwIi8+PC9nPjxnIGlkPSJ4bXYtOCI+PHBhdGggY2xhc3M9InMxMyIgZD0iTSA3LDAgMTAsMCAxMCwyMCA3LDIwIDQsMTAgeiIvPjxwYXRoIGNsYXNzPSJzMSIgZD0iTSAwLDIwIDEsMjAgNywwIDEwLDAiLz48cGF0aCBjbGFzcz0iczEiIGQ9Im0gMCwwIDEsMCA2LDIwIDMsMCIvPjxwYXRoIGNsYXNzPSJzMiIgZD0iTSAwLDUgMiwzIi8+PHBhdGggY2xhc3M9InMyIiBkPSJNIDAsMTAgMyw3Ii8+PHBhdGggY2xhc3M9InMyIiBkPSJNIDAsMTUgMywxMiIvPjxwYXRoIGNsYXNzPSJzMiIgZD0iTSAwLDIwIDEsMTkiLz48L2c+PGcgaWQ9ImRtdi04Ij48cGF0aCBjbGFzcz0iczEzIiBkPSJtIDcsMCAzLDAgMCwyMCAtOSwwIHoiLz48cGF0aCBjbGFzcz0iczEiIGQ9Ik0gMSwyMCA3LDAgMTAsMCIvPjxwYXRoIGNsYXNzPSJzMSIgZD0ibSAwLDIwIDEwLDAiLz48L2c+PGcgaWQ9InVtdi04Ij48cGF0aCBjbGFzcz0iczEzIiBkPSJtIDEsMCA5LDAgMCwyMCAtMywwIHoiLz48cGF0aCBjbGFzcz0iczEiIGQ9Im0gMSwwIDYsMjAgMywwIi8+PHBhdGggY2xhc3M9InMxIiBkPSJNIDAsMCAxMCwwIi8+PC9nPjxnIGlkPSJ6bXYtOCI+PHBhdGggY2xhc3M9InMxMyIgZD0iTSA1LDAgMTAsMCAxMCwyMCA1LDIwIDEsMTAgeiIvPjxwYXRoIGNsYXNzPSJzMSIgZD0ibSAxLDEwIDQsMTAgNSwwIi8+PHBhdGggY2xhc3M9InMxIiBkPSJNIDAsMTAgMSwxMCA1LDAgMTAsMCIvPjwvZz48ZyBpZD0idnZ2LTgiPjxwYXRoIGNsYXNzPSJzMTMiIGQ9Ik0gMTAsMjAgMCwyMCAwLDAgMTAsMCIvPjxwYXRoIGNsYXNzPSJzMSIgZD0ibSAwLDIwIDEwLDAiLz48cGF0aCBjbGFzcz0iczEiIGQ9Ik0gMCwwIDEwLDAiLz48L2c+PGcgaWQ9InZtMC04Ij48cGF0aCBjbGFzcz0iczEzIiBkPSJtIDAsMjAgMCwtMjAgMS4wMDA2ODcsLTAuMDAzOTEgNiwyMCIvPjxwYXRoIGNsYXNzPSJzMSIgZD0ibSAwLDAgMS4wMDA2ODcsLTAuMDAzOTEgNiwyMCIvPjxwYXRoIGNsYXNzPSJzMSIgZD0ibSAwLDIwIDEwLjAwMDY4NywtMC4wMDM5Ii8+PC9nPjxnIGlkPSJ2bTEtOCI+PHBhdGggY2xhc3M9InMxMyIgZD0iTSAwLDAgMCwyMCAxLDIwIDcsMCIvPjxwYXRoIGNsYXNzPSJzMSIgZD0iTSAwLDAgMTAsMCIvPjxwYXRoIGNsYXNzPSJzMSIgZD0iTSAwLDIwIDEsMjAgNywwIi8+PC9nPjxnIGlkPSJ2bXgtOCI+PHBhdGggY2xhc3M9InMxMyIgZD0iTSAwLDAgMCwyMCAxLDIwIDQsMTAgMSwwIi8+PHBhdGggY2xhc3M9InMxIiBkPSJtIDAsMCAxLDAgNiwyMCAzLDAiLz48cGF0aCBjbGFzcz0iczEiIGQ9Ik0gMCwyMCAxLDIwIDcsMCAxMCwwIi8+PHBhdGggY2xhc3M9InMyIiBkPSJNIDEwLDE1IDYuNSwxOC41Ii8+PHBhdGggY2xhc3M9InMyIiBkPSJNIDEwLDEwIDUuNSwxNC41Ii8+PHBhdGggY2xhc3M9InMyIiBkPSJNIDEwLDUgNCwxMSIvPjxwYXRoIGNsYXNzPSJzMiIgZD0iTSAxMCwwIDYsNCIvPjwvZz48ZyBpZD0idm1kLTgiPjxwYXRoIGNsYXNzPSJzMTMiIGQ9Im0gMCwwIDAsMjAgMTAsMCBDIDUsMjAgMiw3IDEsMCIvPjxwYXRoIGNsYXNzPSJzMSIgZD0ibSAwLDAgMSwwIGMgMSw3IDQsMjAgOSwyMCIvPjxwYXRoIGNsYXNzPSJzMSIgZD0ibSAwLDIwIDEwLDAiLz48L2c+PGcgaWQ9InZtdS04Ij48cGF0aCBjbGFzcz0iczEzIiBkPSJtIDAsMCAwLDIwIDEsMCBDIDIsMTMgNSwwIDEwLDAiLz48cGF0aCBjbGFzcz0iczEiIGQ9Im0gMCwyMCAxLDAgQyAyLDEzIDUsMCAxMCwwIi8+PHBhdGggY2xhc3M9InMxIiBkPSJNIDAsMCAxMCwwIi8+PC9nPjxnIGlkPSJ2bXotOCI+PHBhdGggY2xhc3M9InMxMyIgZD0iTSAwLDAgMSwwIEMgMyw2IDcsMTAgMTAsMTAgNywxMCAzLDE0IDEsMjAgTCAwLDIwIi8+PHBhdGggY2xhc3M9InMxIiBkPSJtIDAsMCAxLDAgYyAyLDYgNiwxMCA5LDEwIi8+PHBhdGggY2xhc3M9InMxIiBkPSJtIDAsMjAgMSwwIEMgMywxNCA3LDEwIDEwLDEwIi8+PC9nPjxnIGlkPSIwbXYtOSI+PHBhdGggY2xhc3M9InMxNCIgZD0ibSA3LDAgMywwIDAsMjAgLTksMCB6Ii8+PHBhdGggY2xhc3M9InMxIiBkPSJNIDEsMjAgNywwIDEwLDAiLz48cGF0aCBjbGFzcz0iczEiIGQ9Im0gMCwyMCAxMCwwIi8+PC9nPjxnIGlkPSIxbXYtOSI+PHBhdGggY2xhc3M9InMxNCIgZD0ibSAxLDAgOSwwIDAsMjAgLTMsMCB6Ii8+PHBhdGggY2xhc3M9InMxIiBkPSJtIDEsMCA2LDIwIDMsMCIvPjxwYXRoIGNsYXNzPSJzMSIgZD0iTSAwLDAgMTAsMCIvPjwvZz48ZyBpZD0ieG12LTkiPjxwYXRoIGNsYXNzPSJzMTQiIGQ9Ik0gNywwIDEwLDAgMTAsMjAgNywyMCA0LDEwIHoiLz48cGF0aCBjbGFzcz0iczEiIGQ9Ik0gMCwyMCAxLDIwIDcsMCAxMCwwIi8+PHBhdGggY2xhc3M9InMxIiBkPSJtIDAsMCAxLDAgNiwyMCAzLDAiLz48cGF0aCBjbGFzcz0iczIiIGQ9Ik0gMCw1IDIsMyIvPjxwYXRoIGNsYXNzPSJzMiIgZD0iTSAwLDEwIDMsNyIvPjxwYXRoIGNsYXNzPSJzMiIgZD0iTSAwLDE1IDMsMTIiLz48cGF0aCBjbGFzcz0iczIiIGQ9Ik0gMCwyMCAxLDE5Ii8+PC9nPjxnIGlkPSJkbXYtOSI+PHBhdGggY2xhc3M9InMxNCIgZD0ibSA3LDAgMywwIDAsMjAgLTksMCB6Ii8+PHBhdGggY2xhc3M9InMxIiBkPSJNIDEsMjAgNywwIDEwLDAiLz48cGF0aCBjbGFzcz0iczEiIGQ9Im0gMCwyMCAxMCwwIi8+PC9nPjxnIGlkPSJ1bXYtOSI+PHBhdGggY2xhc3M9InMxNCIgZD0ibSAxLDAgOSwwIDAsMjAgLTMsMCB6Ii8+PHBhdGggY2xhc3M9InMxIiBkPSJtIDEsMCA2LDIwIDMsMCIvPjxwYXRoIGNsYXNzPSJzMSIgZD0iTSAwLDAgMTAsMCIvPjwvZz48ZyBpZD0iem12LTkiPjxwYXRoIGNsYXNzPSJzMTQiIGQ9Ik0gNSwwIDEwLDAgMTAsMjAgNSwyMCAxLDEwIHoiLz48cGF0aCBjbGFzcz0iczEiIGQ9Im0gMSwxMCA0LDEwIDUsMCIvPjxwYXRoIGNsYXNzPSJzMSIgZD0iTSAwLDEwIDEsMTAgNSwwIDEwLDAiLz48L2c+PGcgaWQ9InZ2di05Ij48cGF0aCBjbGFzcz0iczE0IiBkPSJNIDEwLDIwIDAsMjAgMCwwIDEwLDAiLz48cGF0aCBjbGFzcz0iczEiIGQ9Im0gMCwyMCAxMCwwIi8+PHBhdGggY2xhc3M9InMxIiBkPSJNIDAsMCAxMCwwIi8+PC9nPjxnIGlkPSJ2bTAtOSI+PHBhdGggY2xhc3M9InMxNCIgZD0ibSAwLDIwIDAsLTIwIDEuMDAwNjg3LC0wLjAwMzkxIDYsMjAiLz48cGF0aCBjbGFzcz0iczEiIGQ9Im0gMCwwIDEuMDAwNjg3LC0wLjAwMzkxIDYsMjAiLz48cGF0aCBjbGFzcz0iczEiIGQ9Im0gMCwyMCAxMC4wMDA2ODcsLTAuMDAzOSIvPjwvZz48ZyBpZD0idm0xLTkiPjxwYXRoIGNsYXNzPSJzMTQiIGQ9Ik0gMCwwIDAsMjAgMSwyMCA3LDAiLz48cGF0aCBjbGFzcz0iczEiIGQ9Ik0gMCwwIDEwLDAiLz48cGF0aCBjbGFzcz0iczEiIGQ9Ik0gMCwyMCAxLDIwIDcsMCIvPjwvZz48ZyBpZD0idm14LTkiPjxwYXRoIGNsYXNzPSJzMTQiIGQ9Ik0gMCwwIDAsMjAgMSwyMCA0LDEwIDEsMCIvPjxwYXRoIGNsYXNzPSJzMSIgZD0ibSAwLDAgMSwwIDYsMjAgMywwIi8+PHBhdGggY2xhc3M9InMxIiBkPSJNIDAsMjAgMSwyMCA3LDAgMTAsMCIvPjxwYXRoIGNsYXNzPSJzMiIgZD0iTSAxMCwxNSA2LjUsMTguNSIvPjxwYXRoIGNsYXNzPSJzMiIgZD0iTSAxMCwxMCA1LjUsMTQuNSIvPjxwYXRoIGNsYXNzPSJzMiIgZD0iTSAxMCw1IDQsMTEiLz48cGF0aCBjbGFzcz0iczIiIGQ9Ik0gMTAsMCA2LDQiLz48L2c+PGcgaWQ9InZtZC05Ij48cGF0aCBjbGFzcz0iczE0IiBkPSJtIDAsMCAwLDIwIDEwLDAgQyA1LDIwIDIsNyAxLDAiLz48cGF0aCBjbGFzcz0iczEiIGQ9Im0gMCwwIDEsMCBjIDEsNyA0LDIwIDksMjAiLz48cGF0aCBjbGFzcz0iczEiIGQ9Im0gMCwyMCAxMCwwIi8+PC9nPjxnIGlkPSJ2bXUtOSI+PHBhdGggY2xhc3M9InMxNCIgZD0ibSAwLDAgMCwyMCAxLDAgQyAyLDEzIDUsMCAxMCwwIi8+PHBhdGggY2xhc3M9InMxIiBkPSJtIDAsMjAgMSwwIEMgMiwxMyA1LDAgMTAsMCIvPjxwYXRoIGNsYXNzPSJzMSIgZD0iTSAwLDAgMTAsMCIvPjwvZz48ZyBpZD0idm16LTkiPjxwYXRoIGNsYXNzPSJzMTQiIGQ9Ik0gMCwwIDEsMCBDIDMsNiA3LDEwIDEwLDEwIDcsMTAgMywxNCAxLDIwIEwgMCwyMCIvPjxwYXRoIGNsYXNzPSJzMSIgZD0ibSAwLDAgMSwwIGMgMiw2IDYsMTAgOSwxMCIvPjxwYXRoIGNsYXNzPSJzMSIgZD0ibSAwLDIwIDEsMCBDIDMsMTQgNywxMCAxMCwxMCIvPjwvZz48ZyBpZD0idm12LTItMiI+PHBhdGggY2xhc3M9InM3IiBkPSJNIDcsMCAxMCwwIDEwLDIwIDcsMjAgNCwxMCB6Ii8+PHBhdGggY2xhc3M9InM3IiBkPSJNIDEsMCAwLDAgMCwyMCAxLDIwIDQsMTAgeiIvPjxwYXRoIGNsYXNzPSJzMSIgZD0ibSAwLDAgMSwwIDYsMjAgMywwIi8+PHBhdGggY2xhc3M9InMxIiBkPSJNIDAsMjAgMSwyMCA3LDAgMTAsMCIvPjwvZz48ZyBpZD0idm12LTMtMiI+PHBhdGggY2xhc3M9InM3IiBkPSJNIDcsMCAxMCwwIDEwLDIwIDcsMjAgNCwxMCB6Ii8+PHBhdGggY2xhc3M9InM4IiBkPSJNIDEsMCAwLDAgMCwyMCAxLDIwIDQsMTAgeiIvPjxwYXRoIGNsYXNzPSJzMSIgZD0ibSAwLDAgMSwwIDYsMjAgMywwIi8+PHBhdGggY2xhc3M9InMxIiBkPSJNIDAsMjAgMSwyMCA3LDAgMTAsMCIvPjwvZz48ZyBpZD0idm12LTQtMiI+PHBhdGggY2xhc3M9InM3IiBkPSJNIDcsMCAxMCwwIDEwLDIwIDcsMjAgNCwxMCB6Ii8+PHBhdGggY2xhc3M9InM5IiBkPSJNIDEsMCAwLDAgMCwyMCAxLDIwIDQsMTAgeiIvPjxwYXRoIGNsYXNzPSJzMSIgZD0ibSAwLDAgMSwwIDYsMjAgMywwIi8+PHBhdGggY2xhc3M9InMxIiBkPSJNIDAsMjAgMSwyMCA3LDAgMTAsMCIvPjwvZz48ZyBpZD0idm12LTUtMiI+PHBhdGggY2xhc3M9InM3IiBkPSJNIDcsMCAxMCwwIDEwLDIwIDcsMjAgNCwxMCB6Ii8+PHBhdGggY2xhc3M9InMxMCIgZD0iTSAxLDAgMCwwIDAsMjAgMSwyMCA0LDEwIHoiLz48cGF0aCBjbGFzcz0iczEiIGQ9Im0gMCwwIDEsMCA2LDIwIDMsMCIvPjxwYXRoIGNsYXNzPSJzMSIgZD0iTSAwLDIwIDEsMjAgNywwIDEwLDAiLz48L2c+PGcgaWQ9InZtdi02LTIiPjxwYXRoIGNsYXNzPSJzNyIgZD0iTSA3LDAgMTAsMCAxMCwyMCA3LDIwIDQsMTAgeiIvPjxwYXRoIGNsYXNzPSJzMTEiIGQ9Ik0gMSwwIDAsMCAwLDIwIDEsMjAgNCwxMCB6Ii8+PHBhdGggY2xhc3M9InMxIiBkPSJtIDAsMCAxLDAgNiwyMCAzLDAiLz48cGF0aCBjbGFzcz0iczEiIGQ9Ik0gMCwyMCAxLDIwIDcsMCAxMCwwIi8+PC9nPjxnIGlkPSJ2bXYtNy0yIj48cGF0aCBjbGFzcz0iczciIGQ9Ik0gNywwIDEwLDAgMTAsMjAgNywyMCA0LDEwIHoiLz48cGF0aCBjbGFzcz0iczEyIiBkPSJNIDEsMCAwLDAgMCwyMCAxLDIwIDQsMTAgeiIvPjxwYXRoIGNsYXNzPSJzMSIgZD0ibSAwLDAgMSwwIDYsMjAgMywwIi8+PHBhdGggY2xhc3M9InMxIiBkPSJNIDAsMjAgMSwyMCA3LDAgMTAsMCIvPjwvZz48ZyBpZD0idm12LTgtMiI+PHBhdGggY2xhc3M9InM3IiBkPSJNIDcsMCAxMCwwIDEwLDIwIDcsMjAgNCwxMCB6Ii8+PHBhdGggY2xhc3M9InMxMyIgZD0iTSAxLDAgMCwwIDAsMjAgMSwyMCA0LDEwIHoiLz48cGF0aCBjbGFzcz0iczEiIGQ9Im0gMCwwIDEsMCA2LDIwIDMsMCIvPjxwYXRoIGNsYXNzPSJzMSIgZD0iTSAwLDIwIDEsMjAgNywwIDEwLDAiLz48L2c+PGcgaWQ9InZtdi05LTIiPjxwYXRoIGNsYXNzPSJzNyIgZD0iTSA3LDAgMTAsMCAxMCwyMCA3LDIwIDQsMTAgeiIvPjxwYXRoIGNsYXNzPSJzMTQiIGQ9Ik0gMSwwIDAsMCAwLDIwIDEsMjAgNCwxMCB6Ii8+PHBhdGggY2xhc3M9InMxIiBkPSJtIDAsMCAxLDAgNiwyMCAzLDAiLz48cGF0aCBjbGFzcz0iczEiIGQ9Ik0gMCwyMCAxLDIwIDcsMCAxMCwwIi8+PC9nPjxnIGlkPSJ2bXYtMi0zIj48cGF0aCBjbGFzcz0iczgiIGQ9Ik0gNywwIDEwLDAgMTAsMjAgNywyMCA0LDEwIHoiLz48cGF0aCBjbGFzcz0iczciIGQ9Ik0gMSwwIDAsMCAwLDIwIDEsMjAgNCwxMCB6Ii8+PHBhdGggY2xhc3M9InMxIiBkPSJtIDAsMCAxLDAgNiwyMCAzLDAiLz48cGF0aCBjbGFzcz0iczEiIGQ9Ik0gMCwyMCAxLDIwIDcsMCAxMCwwIi8+PC9nPjxnIGlkPSJ2bXYtMy0zIj48cGF0aCBjbGFzcz0iczgiIGQ9Ik0gNywwIDEwLDAgMTAsMjAgNywyMCA0LDEwIHoiLz48cGF0aCBjbGFzcz0iczgiIGQ9Ik0gMSwwIDAsMCAwLDIwIDEsMjAgNCwxMCB6Ii8+PHBhdGggY2xhc3M9InMxIiBkPSJtIDAsMCAxLDAgNiwyMCAzLDAiLz48cGF0aCBjbGFzcz0iczEiIGQ9Ik0gMCwyMCAxLDIwIDcsMCAxMCwwIi8+PC9nPjxnIGlkPSJ2bXYtNC0zIj48cGF0aCBjbGFzcz0iczgiIGQ9Ik0gNywwIDEwLDAgMTAsMjAgNywyMCA0LDEwIHoiLz48cGF0aCBjbGFzcz0iczkiIGQ9Ik0gMSwwIDAsMCAwLDIwIDEsMjAgNCwxMCB6Ii8+PHBhdGggY2xhc3M9InMxIiBkPSJtIDAsMCAxLDAgNiwyMCAzLDAiLz48cGF0aCBjbGFzcz0iczEiIGQ9Ik0gMCwyMCAxLDIwIDcsMCAxMCwwIi8+PC9nPjxnIGlkPSJ2bXYtNS0zIj48cGF0aCBjbGFzcz0iczgiIGQ9Ik0gNywwIDEwLDAgMTAsMjAgNywyMCA0LDEwIHoiLz48cGF0aCBjbGFzcz0iczEwIiBkPSJNIDEsMCAwLDAgMCwyMCAxLDIwIDQsMTAgeiIvPjxwYXRoIGNsYXNzPSJzMSIgZD0ibSAwLDAgMSwwIDYsMjAgMywwIi8+PHBhdGggY2xhc3M9InMxIiBkPSJNIDAsMjAgMSwyMCA3LDAgMTAsMCIvPjwvZz48ZyBpZD0idm12LTYtMyI+PHBhdGggY2xhc3M9InM4IiBkPSJNIDcsMCAxMCwwIDEwLDIwIDcsMjAgNCwxMCB6Ii8+PHBhdGggY2xhc3M9InMxMSIgZD0iTSAxLDAgMCwwIDAsMjAgMSwyMCA0LDEwIHoiLz48cGF0aCBjbGFzcz0iczEiIGQ9Im0gMCwwIDEsMCA2LDIwIDMsMCIvPjxwYXRoIGNsYXNzPSJzMSIgZD0iTSAwLDIwIDEsMjAgNywwIDEwLDAiLz48L2c+PGcgaWQ9InZtdi03LTMiPjxwYXRoIGNsYXNzPSJzOCIgZD0iTSA3LDAgMTAsMCAxMCwyMCA3LDIwIDQsMTAgeiIvPjxwYXRoIGNsYXNzPSJzMTIiIGQ9Ik0gMSwwIDAsMCAwLDIwIDEsMjAgNCwxMCB6Ii8+PHBhdGggY2xhc3M9InMxIiBkPSJtIDAsMCAxLDAgNiwyMCAzLDAiLz48cGF0aCBjbGFzcz0iczEiIGQ9Ik0gMCwyMCAxLDIwIDcsMCAxMCwwIi8+PC9nPjxnIGlkPSJ2bXYtOC0zIj48cGF0aCBjbGFzcz0iczgiIGQ9Ik0gNywwIDEwLDAgMTAsMjAgNywyMCA0LDEwIHoiLz48cGF0aCBjbGFzcz0iczEzIiBkPSJNIDEsMCAwLDAgMCwyMCAxLDIwIDQsMTAgeiIvPjxwYXRoIGNsYXNzPSJzMSIgZD0ibSAwLDAgMSwwIDYsMjAgMywwIi8+PHBhdGggY2xhc3M9InMxIiBkPSJNIDAsMjAgMSwyMCA3LDAgMTAsMCIvPjwvZz48ZyBpZD0idm12LTktMyI+PHBhdGggY2xhc3M9InM4IiBkPSJNIDcsMCAxMCwwIDEwLDIwIDcsMjAgNCwxMCB6Ii8+PHBhdGggY2xhc3M9InMxNCIgZD0iTSAxLDAgMCwwIDAsMjAgMSwyMCA0LDEwIHoiLz48cGF0aCBjbGFzcz0iczEiIGQ9Im0gMCwwIDEsMCA2LDIwIDMsMCIvPjxwYXRoIGNsYXNzPSJzMSIgZD0iTSAwLDIwIDEsMjAgNywwIDEwLDAiLz48L2c+PGcgaWQ9InZtdi0yLTQiPjxwYXRoIGNsYXNzPSJzOSIgZD0iTSA3LDAgMTAsMCAxMCwyMCA3LDIwIDQsMTAgeiIvPjxwYXRoIGNsYXNzPSJzNyIgZD0iTSAxLDAgMCwwIDAsMjAgMSwyMCA0LDEwIHoiLz48cGF0aCBjbGFzcz0iczEiIGQ9Im0gMCwwIDEsMCA2LDIwIDMsMCIvPjxwYXRoIGNsYXNzPSJzMSIgZD0iTSAwLDIwIDEsMjAgNywwIDEwLDAiLz48L2c+PGcgaWQ9InZtdi0zLTQiPjxwYXRoIGNsYXNzPSJzOSIgZD0iTSA3LDAgMTAsMCAxMCwyMCA3LDIwIDQsMTAgeiIvPjxwYXRoIGNsYXNzPSJzOCIgZD0iTSAxLDAgMCwwIDAsMjAgMSwyMCA0LDEwIHoiLz48cGF0aCBjbGFzcz0iczEiIGQ9Im0gMCwwIDEsMCA2LDIwIDMsMCIvPjxwYXRoIGNsYXNzPSJzMSIgZD0iTSAwLDIwIDEsMjAgNywwIDEwLDAiLz48L2c+PGcgaWQ9InZtdi00LTQiPjxwYXRoIGNsYXNzPSJzOSIgZD0iTSA3LDAgMTAsMCAxMCwyMCA3LDIwIDQsMTAgeiIvPjxwYXRoIGNsYXNzPSJzOSIgZD0iTSAxLDAgMCwwIDAsMjAgMSwyMCA0LDEwIHoiLz48cGF0aCBjbGFzcz0iczEiIGQ9Im0gMCwwIDEsMCA2LDIwIDMsMCIvPjxwYXRoIGNsYXNzPSJzMSIgZD0iTSAwLDIwIDEsMjAgNywwIDEwLDAiLz48L2c+PGcgaWQ9InZtdi01LTQiPjxwYXRoIGNsYXNzPSJzOSIgZD0iTSA3LDAgMTAsMCAxMCwyMCA3LDIwIDQsMTAgeiIvPjxwYXRoIGNsYXNzPSJzMTAiIGQ9Ik0gMSwwIDAsMCAwLDIwIDEsMjAgNCwxMCB6Ii8+PHBhdGggY2xhc3M9InMxIiBkPSJtIDAsMCAxLDAgNiwyMCAzLDAiLz48cGF0aCBjbGFzcz0iczEiIGQ9Ik0gMCwyMCAxLDIwIDcsMCAxMCwwIi8+PC9nPjxnIGlkPSJ2bXYtNi00Ij48cGF0aCBjbGFzcz0iczkiIGQ9Ik0gNywwIDEwLDAgMTAsMjAgNywyMCA0LDEwIHoiLz48cGF0aCBjbGFzcz0iczExIiBkPSJNIDEsMCAwLDAgMCwyMCAxLDIwIDQsMTAgeiIvPjxwYXRoIGNsYXNzPSJzMSIgZD0ibSAwLDAgMSwwIDYsMjAgMywwIi8+PHBhdGggY2xhc3M9InMxIiBkPSJNIDAsMjAgMSwyMCA3LDAgMTAsMCIvPjwvZz48ZyBpZD0idm12LTctNCI+PHBhdGggY2xhc3M9InM5IiBkPSJNIDcsMCAxMCwwIDEwLDIwIDcsMjAgNCwxMCB6Ii8+PHBhdGggY2xhc3M9InMxMiIgZD0iTSAxLDAgMCwwIDAsMjAgMSwyMCA0LDEwIHoiLz48cGF0aCBjbGFzcz0iczEiIGQ9Im0gMCwwIDEsMCA2LDIwIDMsMCIvPjxwYXRoIGNsYXNzPSJzMSIgZD0iTSAwLDIwIDEsMjAgNywwIDEwLDAiLz48L2c+PGcgaWQ9InZtdi04LTQiPjxwYXRoIGNsYXNzPSJzOSIgZD0iTSA3LDAgMTAsMCAxMCwyMCA3LDIwIDQsMTAgeiIvPjxwYXRoIGNsYXNzPSJzMTMiIGQ9Ik0gMSwwIDAsMCAwLDIwIDEsMjAgNCwxMCB6Ii8+PHBhdGggY2xhc3M9InMxIiBkPSJtIDAsMCAxLDAgNiwyMCAzLDAiLz48cGF0aCBjbGFzcz0iczEiIGQ9Ik0gMCwyMCAxLDIwIDcsMCAxMCwwIi8+PC9nPjxnIGlkPSJ2bXYtOS00Ij48cGF0aCBjbGFzcz0iczkiIGQ9Ik0gNywwIDEwLDAgMTAsMjAgNywyMCA0LDEwIHoiLz48cGF0aCBjbGFzcz0iczE0IiBkPSJNIDEsMCAwLDAgMCwyMCAxLDIwIDQsMTAgeiIvPjxwYXRoIGNsYXNzPSJzMSIgZD0ibSAwLDAgMSwwIDYsMjAgMywwIi8+PHBhdGggY2xhc3M9InMxIiBkPSJNIDAsMjAgMSwyMCA3LDAgMTAsMCIvPjwvZz48ZyBpZD0idm12LTItNSI+PHBhdGggY2xhc3M9InMxMCIgZD0iTSA3LDAgMTAsMCAxMCwyMCA3LDIwIDQsMTAgeiIvPjxwYXRoIGNsYXNzPSJzNyIgZD0iTSAxLDAgMCwwIDAsMjAgMSwyMCA0LDEwIHoiLz48cGF0aCBjbGFzcz0iczEiIGQ9Im0gMCwwIDEsMCA2LDIwIDMsMCIvPjxwYXRoIGNsYXNzPSJzMSIgZD0iTSAwLDIwIDEsMjAgNywwIDEwLDAiLz48L2c+PGcgaWQ9InZtdi0zLTUiPjxwYXRoIGNsYXNzPSJzMTAiIGQ9Ik0gNywwIDEwLDAgMTAsMjAgNywyMCA0LDEwIHoiLz48cGF0aCBjbGFzcz0iczgiIGQ9Ik0gMSwwIDAsMCAwLDIwIDEsMjAgNCwxMCB6Ii8+PHBhdGggY2xhc3M9InMxIiBkPSJtIDAsMCAxLDAgNiwyMCAzLDAiLz48cGF0aCBjbGFzcz0iczEiIGQ9Ik0gMCwyMCAxLDIwIDcsMCAxMCwwIi8+PC9nPjxnIGlkPSJ2bXYtNC01Ij48cGF0aCBjbGFzcz0iczEwIiBkPSJNIDcsMCAxMCwwIDEwLDIwIDcsMjAgNCwxMCB6Ii8+PHBhdGggY2xhc3M9InM5IiBkPSJNIDEsMCAwLDAgMCwyMCAxLDIwIDQsMTAgeiIvPjxwYXRoIGNsYXNzPSJzMSIgZD0ibSAwLDAgMSwwIDYsMjAgMywwIi8+PHBhdGggY2xhc3M9InMxIiBkPSJNIDAsMjAgMSwyMCA3LDAgMTAsMCIvPjwvZz48ZyBpZD0idm12LTUtNSI+PHBhdGggY2xhc3M9InMxMCIgZD0iTSA3LDAgMTAsMCAxMCwyMCA3LDIwIDQsMTAgeiIvPjxwYXRoIGNsYXNzPSJzMTAiIGQ9Ik0gMSwwIDAsMCAwLDIwIDEsMjAgNCwxMCB6Ii8+PHBhdGggY2xhc3M9InMxIiBkPSJtIDAsMCAxLDAgNiwyMCAzLDAiLz48cGF0aCBjbGFzcz0iczEiIGQ9Ik0gMCwyMCAxLDIwIDcsMCAxMCwwIi8+PC9nPjxnIGlkPSJ2bXYtNi01Ij48cGF0aCBjbGFzcz0iczEwIiBkPSJNIDcsMCAxMCwwIDEwLDIwIDcsMjAgNCwxMCB6Ii8+PHBhdGggY2xhc3M9InMxMSIgZD0iTSAxLDAgMCwwIDAsMjAgMSwyMCA0LDEwIHoiLz48cGF0aCBjbGFzcz0iczEiIGQ9Im0gMCwwIDEsMCA2LDIwIDMsMCIvPjxwYXRoIGNsYXNzPSJzMSIgZD0iTSAwLDIwIDEsMjAgNywwIDEwLDAiLz48L2c+PGcgaWQ9InZtdi03LTUiPjxwYXRoIGNsYXNzPSJzMTAiIGQ9Ik0gNywwIDEwLDAgMTAsMjAgNywyMCA0LDEwIHoiLz48cGF0aCBjbGFzcz0iczEyIiBkPSJNIDEsMCAwLDAgMCwyMCAxLDIwIDQsMTAgeiIvPjxwYXRoIGNsYXNzPSJzMSIgZD0ibSAwLDAgMSwwIDYsMjAgMywwIi8+PHBhdGggY2xhc3M9InMxIiBkPSJNIDAsMjAgMSwyMCA3LDAgMTAsMCIvPjwvZz48ZyBpZD0idm12LTgtNSI+PHBhdGggY2xhc3M9InMxMCIgZD0iTSA3LDAgMTAsMCAxMCwyMCA3LDIwIDQsMTAgeiIvPjxwYXRoIGNsYXNzPSJzMTMiIGQ9Ik0gMSwwIDAsMCAwLDIwIDEsMjAgNCwxMCB6Ii8+PHBhdGggY2xhc3M9InMxIiBkPSJtIDAsMCAxLDAgNiwyMCAzLDAiLz48cGF0aCBjbGFzcz0iczEiIGQ9Ik0gMCwyMCAxLDIwIDcsMCAxMCwwIi8+PC9nPjxnIGlkPSJ2bXYtOS01Ij48cGF0aCBjbGFzcz0iczEwIiBkPSJNIDcsMCAxMCwwIDEwLDIwIDcsMjAgNCwxMCB6Ii8+PHBhdGggY2xhc3M9InMxNCIgZD0iTSAxLDAgMCwwIDAsMjAgMSwyMCA0LDEwIHoiLz48cGF0aCBjbGFzcz0iczEiIGQ9Im0gMCwwIDEsMCA2LDIwIDMsMCIvPjxwYXRoIGNsYXNzPSJzMSIgZD0iTSAwLDIwIDEsMjAgNywwIDEwLDAiLz48L2c+PGcgaWQ9InZtdi0yLTYiPjxwYXRoIGNsYXNzPSJzMTEiIGQ9Ik0gNywwIDEwLDAgMTAsMjAgNywyMCA0LDEwIHoiLz48cGF0aCBjbGFzcz0iczciIGQ9Ik0gMSwwIDAsMCAwLDIwIDEsMjAgNCwxMCB6Ii8+PHBhdGggY2xhc3M9InMxIiBkPSJtIDAsMCAxLDAgNiwyMCAzLDAiLz48cGF0aCBjbGFzcz0iczEiIGQ9Ik0gMCwyMCAxLDIwIDcsMCAxMCwwIi8+PC9nPjxnIGlkPSJ2bXYtMy02Ij48cGF0aCBjbGFzcz0iczExIiBkPSJNIDcsMCAxMCwwIDEwLDIwIDcsMjAgNCwxMCB6Ii8+PHBhdGggY2xhc3M9InM4IiBkPSJNIDEsMCAwLDAgMCwyMCAxLDIwIDQsMTAgeiIvPjxwYXRoIGNsYXNzPSJzMSIgZD0ibSAwLDAgMSwwIDYsMjAgMywwIi8+PHBhdGggY2xhc3M9InMxIiBkPSJNIDAsMjAgMSwyMCA3LDAgMTAsMCIvPjwvZz48ZyBpZD0idm12LTQtNiI+PHBhdGggY2xhc3M9InMxMSIgZD0iTSA3LDAgMTAsMCAxMCwyMCA3LDIwIDQsMTAgeiIvPjxwYXRoIGNsYXNzPSJzOSIgZD0iTSAxLDAgMCwwIDAsMjAgMSwyMCA0LDEwIHoiLz48cGF0aCBjbGFzcz0iczEiIGQ9Im0gMCwwIDEsMCA2LDIwIDMsMCIvPjxwYXRoIGNsYXNzPSJzMSIgZD0iTSAwLDIwIDEsMjAgNywwIDEwLDAiLz48L2c+PGcgaWQ9InZtdi01LTYiPjxwYXRoIGNsYXNzPSJzMTEiIGQ9Ik0gNywwIDEwLDAgMTAsMjAgNywyMCA0LDEwIHoiLz48cGF0aCBjbGFzcz0iczEwIiBkPSJNIDEsMCAwLDAgMCwyMCAxLDIwIDQsMTAgeiIvPjxwYXRoIGNsYXNzPSJzMSIgZD0ibSAwLDAgMSwwIDYsMjAgMywwIi8+PHBhdGggY2xhc3M9InMxIiBkPSJNIDAsMjAgMSwyMCA3LDAgMTAsMCIvPjwvZz48ZyBpZD0idm12LTYtNiI+PHBhdGggY2xhc3M9InMxMSIgZD0iTSA3LDAgMTAsMCAxMCwyMCA3LDIwIDQsMTAgeiIvPjxwYXRoIGNsYXNzPSJzMTEiIGQ9Ik0gMSwwIDAsMCAwLDIwIDEsMjAgNCwxMCB6Ii8+PHBhdGggY2xhc3M9InMxIiBkPSJtIDAsMCAxLDAgNiwyMCAzLDAiLz48cGF0aCBjbGFzcz0iczEiIGQ9Ik0gMCwyMCAxLDIwIDcsMCAxMCwwIi8+PC9nPjxnIGlkPSJ2bXYtNy02Ij48cGF0aCBjbGFzcz0iczExIiBkPSJNIDcsMCAxMCwwIDEwLDIwIDcsMjAgNCwxMCB6Ii8+PHBhdGggY2xhc3M9InMxMiIgZD0iTSAxLDAgMCwwIDAsMjAgMSwyMCA0LDEwIHoiLz48cGF0aCBjbGFzcz0iczEiIGQ9Im0gMCwwIDEsMCA2LDIwIDMsMCIvPjxwYXRoIGNsYXNzPSJzMSIgZD0iTSAwLDIwIDEsMjAgNywwIDEwLDAiLz48L2c+PGcgaWQ9InZtdi04LTYiPjxwYXRoIGNsYXNzPSJzMTEiIGQ9Ik0gNywwIDEwLDAgMTAsMjAgNywyMCA0LDEwIHoiLz48cGF0aCBjbGFzcz0iczEzIiBkPSJNIDEsMCAwLDAgMCwyMCAxLDIwIDQsMTAgeiIvPjxwYXRoIGNsYXNzPSJzMSIgZD0ibSAwLDAgMSwwIDYsMjAgMywwIi8+PHBhdGggY2xhc3M9InMxIiBkPSJNIDAsMjAgMSwyMCA3LDAgMTAsMCIvPjwvZz48ZyBpZD0idm12LTktNiI+PHBhdGggY2xhc3M9InMxMSIgZD0iTSA3LDAgMTAsMCAxMCwyMCA3LDIwIDQsMTAgeiIvPjxwYXRoIGNsYXNzPSJzMTQiIGQ9Ik0gMSwwIDAsMCAwLDIwIDEsMjAgNCwxMCB6Ii8+PHBhdGggY2xhc3M9InMxIiBkPSJtIDAsMCAxLDAgNiwyMCAzLDAiLz48cGF0aCBjbGFzcz0iczEiIGQ9Ik0gMCwyMCAxLDIwIDcsMCAxMCwwIi8+PC9nPjxnIGlkPSJ2bXYtMi03Ij48cGF0aCBjbGFzcz0iczEyIiBkPSJNIDcsMCAxMCwwIDEwLDIwIDcsMjAgNCwxMCB6Ii8+PHBhdGggY2xhc3M9InM3IiBkPSJNIDEsMCAwLDAgMCwyMCAxLDIwIDQsMTAgeiIvPjxwYXRoIGNsYXNzPSJzMSIgZD0ibSAwLDAgMSwwIDYsMjAgMywwIi8+PHBhdGggY2xhc3M9InMxIiBkPSJNIDAsMjAgMSwyMCA3LDAgMTAsMCIvPjwvZz48ZyBpZD0idm12LTMtNyI+PHBhdGggY2xhc3M9InMxMiIgZD0iTSA3LDAgMTAsMCAxMCwyMCA3LDIwIDQsMTAgeiIvPjxwYXRoIGNsYXNzPSJzOCIgZD0iTSAxLDAgMCwwIDAsMjAgMSwyMCA0LDEwIHoiLz48cGF0aCBjbGFzcz0iczEiIGQ9Im0gMCwwIDEsMCA2LDIwIDMsMCIvPjxwYXRoIGNsYXNzPSJzMSIgZD0iTSAwLDIwIDEsMjAgNywwIDEwLDAiLz48L2c+PGcgaWQ9InZtdi00LTciPjxwYXRoIGNsYXNzPSJzMTIiIGQ9Ik0gNywwIDEwLDAgMTAsMjAgNywyMCA0LDEwIHoiLz48cGF0aCBjbGFzcz0iczkiIGQ9Ik0gMSwwIDAsMCAwLDIwIDEsMjAgNCwxMCB6Ii8+PHBhdGggY2xhc3M9InMxIiBkPSJtIDAsMCAxLDAgNiwyMCAzLDAiLz48cGF0aCBjbGFzcz0iczEiIGQ9Ik0gMCwyMCAxLDIwIDcsMCAxMCwwIi8+PC9nPjxnIGlkPSJ2bXYtNS03Ij48cGF0aCBjbGFzcz0iczEyIiBkPSJNIDcsMCAxMCwwIDEwLDIwIDcsMjAgNCwxMCB6Ii8+PHBhdGggY2xhc3M9InMxMCIgZD0iTSAxLDAgMCwwIDAsMjAgMSwyMCA0LDEwIHoiLz48cGF0aCBjbGFzcz0iczEiIGQ9Im0gMCwwIDEsMCA2LDIwIDMsMCIvPjxwYXRoIGNsYXNzPSJzMSIgZD0iTSAwLDIwIDEsMjAgNywwIDEwLDAiLz48L2c+PGcgaWQ9InZtdi02LTciPjxwYXRoIGNsYXNzPSJzMTIiIGQ9Ik0gNywwIDEwLDAgMTAsMjAgNywyMCA0LDEwIHoiLz48cGF0aCBjbGFzcz0iczExIiBkPSJNIDEsMCAwLDAgMCwyMCAxLDIwIDQsMTAgeiIvPjxwYXRoIGNsYXNzPSJzMSIgZD0ibSAwLDAgMSwwIDYsMjAgMywwIi8+PHBhdGggY2xhc3M9InMxIiBkPSJNIDAsMjAgMSwyMCA3LDAgMTAsMCIvPjwvZz48ZyBpZD0idm12LTctNyI+PHBhdGggY2xhc3M9InMxMiIgZD0iTSA3LDAgMTAsMCAxMCwyMCA3LDIwIDQsMTAgeiIvPjxwYXRoIGNsYXNzPSJzMTIiIGQ9Ik0gMSwwIDAsMCAwLDIwIDEsMjAgNCwxMCB6Ii8+PHBhdGggY2xhc3M9InMxIiBkPSJtIDAsMCAxLDAgNiwyMCAzLDAiLz48cGF0aCBjbGFzcz0iczEiIGQ9Ik0gMCwyMCAxLDIwIDcsMCAxMCwwIi8+PC9nPjxnIGlkPSJ2bXYtOC03Ij48cGF0aCBjbGFzcz0iczEyIiBkPSJNIDcsMCAxMCwwIDEwLDIwIDcsMjAgNCwxMCB6Ii8+PHBhdGggY2xhc3M9InMxMyIgZD0iTSAxLDAgMCwwIDAsMjAgMSwyMCA0LDEwIHoiLz48cGF0aCBjbGFzcz0iczEiIGQ9Im0gMCwwIDEsMCA2LDIwIDMsMCIvPjxwYXRoIGNsYXNzPSJzMSIgZD0iTSAwLDIwIDEsMjAgNywwIDEwLDAiLz48L2c+PGcgaWQ9InZtdi05LTciPjxwYXRoIGNsYXNzPSJzMTIiIGQ9Ik0gNywwIDEwLDAgMTAsMjAgNywyMCA0LDEwIHoiLz48cGF0aCBjbGFzcz0iczE0IiBkPSJNIDEsMCAwLDAgMCwyMCAxLDIwIDQsMTAgeiIvPjxwYXRoIGNsYXNzPSJzMSIgZD0ibSAwLDAgMSwwIDYsMjAgMywwIi8+PHBhdGggY2xhc3M9InMxIiBkPSJNIDAsMjAgMSwyMCA3LDAgMTAsMCIvPjwvZz48ZyBpZD0idm12LTItOCI+PHBhdGggY2xhc3M9InMxMyIgZD0iTSA3LDAgMTAsMCAxMCwyMCA3LDIwIDQsMTAgeiIvPjxwYXRoIGNsYXNzPSJzNyIgZD0iTSAxLDAgMCwwIDAsMjAgMSwyMCA0LDEwIHoiLz48cGF0aCBjbGFzcz0iczEiIGQ9Im0gMCwwIDEsMCA2LDIwIDMsMCIvPjxwYXRoIGNsYXNzPSJzMSIgZD0iTSAwLDIwIDEsMjAgNywwIDEwLDAiLz48L2c+PGcgaWQ9InZtdi0zLTgiPjxwYXRoIGNsYXNzPSJzMTMiIGQ9Ik0gNywwIDEwLDAgMTAsMjAgNywyMCA0LDEwIHoiLz48cGF0aCBjbGFzcz0iczgiIGQ9Ik0gMSwwIDAsMCAwLDIwIDEsMjAgNCwxMCB6Ii8+PHBhdGggY2xhc3M9InMxIiBkPSJtIDAsMCAxLDAgNiwyMCAzLDAiLz48cGF0aCBjbGFzcz0iczEiIGQ9Ik0gMCwyMCAxLDIwIDcsMCAxMCwwIi8+PC9nPjxnIGlkPSJ2bXYtNC04Ij48cGF0aCBjbGFzcz0iczEzIiBkPSJNIDcsMCAxMCwwIDEwLDIwIDcsMjAgNCwxMCB6Ii8+PHBhdGggY2xhc3M9InM5IiBkPSJNIDEsMCAwLDAgMCwyMCAxLDIwIDQsMTAgeiIvPjxwYXRoIGNsYXNzPSJzMSIgZD0ibSAwLDAgMSwwIDYsMjAgMywwIi8+PHBhdGggY2xhc3M9InMxIiBkPSJNIDAsMjAgMSwyMCA3LDAgMTAsMCIvPjwvZz48ZyBpZD0idm12LTUtOCI+PHBhdGggY2xhc3M9InMxMyIgZD0iTSA3LDAgMTAsMCAxMCwyMCA3LDIwIDQsMTAgeiIvPjxwYXRoIGNsYXNzPSJzMTAiIGQ9Ik0gMSwwIDAsMCAwLDIwIDEsMjAgNCwxMCB6Ii8+PHBhdGggY2xhc3M9InMxIiBkPSJtIDAsMCAxLDAgNiwyMCAzLDAiLz48cGF0aCBjbGFzcz0iczEiIGQ9Ik0gMCwyMCAxLDIwIDcsMCAxMCwwIi8+PC9nPjxnIGlkPSJ2bXYtNi04Ij48cGF0aCBjbGFzcz0iczEzIiBkPSJNIDcsMCAxMCwwIDEwLDIwIDcsMjAgNCwxMCB6Ii8+PHBhdGggY2xhc3M9InMxMSIgZD0iTSAxLDAgMCwwIDAsMjAgMSwyMCA0LDEwIHoiLz48cGF0aCBjbGFzcz0iczEiIGQ9Im0gMCwwIDEsMCA2LDIwIDMsMCIvPjxwYXRoIGNsYXNzPSJzMSIgZD0iTSAwLDIwIDEsMjAgNywwIDEwLDAiLz48L2c+PGcgaWQ9InZtdi03LTgiPjxwYXRoIGNsYXNzPSJzMTMiIGQ9Ik0gNywwIDEwLDAgMTAsMjAgNywyMCA0LDEwIHoiLz48cGF0aCBjbGFzcz0iczEyIiBkPSJNIDEsMCAwLDAgMCwyMCAxLDIwIDQsMTAgeiIvPjxwYXRoIGNsYXNzPSJzMSIgZD0ibSAwLDAgMSwwIDYsMjAgMywwIi8+PHBhdGggY2xhc3M9InMxIiBkPSJNIDAsMjAgMSwyMCA3LDAgMTAsMCIvPjwvZz48ZyBpZD0idm12LTgtOCI+PHBhdGggY2xhc3M9InMxMyIgZD0iTSA3LDAgMTAsMCAxMCwyMCA3LDIwIDQsMTAgeiIvPjxwYXRoIGNsYXNzPSJzMTMiIGQ9Ik0gMSwwIDAsMCAwLDIwIDEsMjAgNCwxMCB6Ii8+PHBhdGggY2xhc3M9InMxIiBkPSJtIDAsMCAxLDAgNiwyMCAzLDAiLz48cGF0aCBjbGFzcz0iczEiIGQ9Ik0gMCwyMCAxLDIwIDcsMCAxMCwwIi8+PC9nPjxnIGlkPSJ2bXYtOS04Ij48cGF0aCBjbGFzcz0iczEzIiBkPSJNIDcsMCAxMCwwIDEwLDIwIDcsMjAgNCwxMCB6Ii8+PHBhdGggY2xhc3M9InMxNCIgZD0iTSAxLDAgMCwwIDAsMjAgMSwyMCA0LDEwIHoiLz48cGF0aCBjbGFzcz0iczEiIGQ9Im0gMCwwIDEsMCA2LDIwIDMsMCIvPjxwYXRoIGNsYXNzPSJzMSIgZD0iTSAwLDIwIDEsMjAgNywwIDEwLDAiLz48L2c+PGcgaWQ9InZtdi0yLTkiPjxwYXRoIGNsYXNzPSJzMTQiIGQ9Ik0gNywwIDEwLDAgMTAsMjAgNywyMCA0LDEwIHoiLz48cGF0aCBjbGFzcz0iczciIGQ9Ik0gMSwwIDAsMCAwLDIwIDEsMjAgNCwxMCB6Ii8+PHBhdGggY2xhc3M9InMxIiBkPSJtIDAsMCAxLDAgNiwyMCAzLDAiLz48cGF0aCBjbGFzcz0iczEiIGQ9Ik0gMCwyMCAxLDIwIDcsMCAxMCwwIi8+PC9nPjxnIGlkPSJ2bXYtMy05Ij48cGF0aCBjbGFzcz0iczE0IiBkPSJNIDcsMCAxMCwwIDEwLDIwIDcsMjAgNCwxMCB6Ii8+PHBhdGggY2xhc3M9InM4IiBkPSJNIDEsMCAwLDAgMCwyMCAxLDIwIDQsMTAgeiIvPjxwYXRoIGNsYXNzPSJzMSIgZD0ibSAwLDAgMSwwIDYsMjAgMywwIi8+PHBhdGggY2xhc3M9InMxIiBkPSJNIDAsMjAgMSwyMCA3LDAgMTAsMCIvPjwvZz48ZyBpZD0idm12LTQtOSI+PHBhdGggY2xhc3M9InMxNCIgZD0iTSA3LDAgMTAsMCAxMCwyMCA3LDIwIDQsMTAgeiIvPjxwYXRoIGNsYXNzPSJzOSIgZD0iTSAxLDAgMCwwIDAsMjAgMSwyMCA0LDEwIHoiLz48cGF0aCBjbGFzcz0iczEiIGQ9Im0gMCwwIDEsMCA2LDIwIDMsMCIvPjxwYXRoIGNsYXNzPSJzMSIgZD0iTSAwLDIwIDEsMjAgNywwIDEwLDAiLz48L2c+PGcgaWQ9InZtdi01LTkiPjxwYXRoIGNsYXNzPSJzMTQiIGQ9Ik0gNywwIDEwLDAgMTAsMjAgNywyMCA0LDEwIHoiLz48cGF0aCBjbGFzcz0iczEwIiBkPSJNIDEsMCAwLDAgMCwyMCAxLDIwIDQsMTAgeiIvPjxwYXRoIGNsYXNzPSJzMSIgZD0ibSAwLDAgMSwwIDYsMjAgMywwIi8+PHBhdGggY2xhc3M9InMxIiBkPSJNIDAsMjAgMSwyMCA3LDAgMTAsMCIvPjwvZz48ZyBpZD0idm12LTYtOSI+PHBhdGggY2xhc3M9InMxNCIgZD0iTSA3LDAgMTAsMCAxMCwyMCA3LDIwIDQsMTAgeiIvPjxwYXRoIGNsYXNzPSJzMTEiIGQ9Ik0gMSwwIDAsMCAwLDIwIDEsMjAgNCwxMCB6Ii8+PHBhdGggY2xhc3M9InMxIiBkPSJtIDAsMCAxLDAgNiwyMCAzLDAiLz48cGF0aCBjbGFzcz0iczEiIGQ9Ik0gMCwyMCAxLDIwIDcsMCAxMCwwIi8+PC9nPjxnIGlkPSJ2bXYtNy05Ij48cGF0aCBjbGFzcz0iczE0IiBkPSJNIDcsMCAxMCwwIDEwLDIwIDcsMjAgNCwxMCB6Ii8+PHBhdGggY2xhc3M9InMxMiIgZD0iTSAxLDAgMCwwIDAsMjAgMSwyMCA0LDEwIHoiLz48cGF0aCBjbGFzcz0iczEiIGQ9Im0gMCwwIDEsMCA2LDIwIDMsMCIvPjxwYXRoIGNsYXNzPSJzMSIgZD0iTSAwLDIwIDEsMjAgNywwIDEwLDAiLz48L2c+PGcgaWQ9InZtdi04LTkiPjxwYXRoIGNsYXNzPSJzMTQiIGQ9Ik0gNywwIDEwLDAgMTAsMjAgNywyMCA0LDEwIHoiLz48cGF0aCBjbGFzcz0iczEzIiBkPSJNIDEsMCAwLDAgMCwyMCAxLDIwIDQsMTAgeiIvPjxwYXRoIGNsYXNzPSJzMSIgZD0ibSAwLDAgMSwwIDYsMjAgMywwIi8+PHBhdGggY2xhc3M9InMxIiBkPSJNIDAsMjAgMSwyMCA3LDAgMTAsMCIvPjwvZz48ZyBpZD0idm12LTktOSI+PHBhdGggY2xhc3M9InMxNCIgZD0iTSA3LDAgMTAsMCAxMCwyMCA3LDIwIDQsMTAgeiIvPjxwYXRoIGNsYXNzPSJzMTQiIGQ9Ik0gMSwwIDAsMCAwLDIwIDEsMjAgNCwxMCB6Ii8+PHBhdGggY2xhc3M9InMxIiBkPSJtIDAsMCAxLDAgNiwyMCAzLDAiLz48cGF0aCBjbGFzcz0iczEiIGQ9Ik0gMCwyMCAxLDIwIDcsMCAxMCwwIi8+PC9nPjxtYXJrZXIgb3JpZW50PSJhdXRvIiByZWZZPSIwIiByZWZYPSIxNSIgdmlld0JveD0iMCAtNCAxMSA4IiBtYXJrZXJVbml0cz0ic3Ryb2tlV2lkdGgiIG1hcmtlcldpZHRoPSIxMCIgbWFya2VySGVpZ2h0PSI3IiBzdHlsZT0iZmlsbDojMDA0MWM0IiBpZD0iYXJyb3doZWFkIj48cGF0aCBkPSJNMCAtNCAxMSAwIDAgNHoiLz48L21hcmtlcj48bWFya2VyIG9yaWVudD0iYXV0byIgcmVmWT0iMCIgcmVmWD0iLTE1IiB2aWV3Qm94PSItMTEgLTQgMTEgOCIgbWFya2VyVW5pdHM9InN0cm9rZVdpZHRoIiBtYXJrZXJXaWR0aD0iMTAiIG1hcmtlckhlaWdodD0iNyIgc3R5bGU9ImZpbGw6IzAwNDFjNCIgaWQ9ImFycm93dGFpbCI+PHBhdGggZD0iTTAgLTQgLTExIDAgMCA0eiIvPjwvbWFya2VyPjxtYXJrZXIgb3JpZW50PSJhdXRvIiByZWZZPSIzIiByZWZYPSIwIiB2aWV3Qm94PSIwIDAgMSA2IiBtYXJrZXJVbml0cz0ic3Ryb2tlV2lkdGgiIG1hcmtlcldpZHRoPSIxIiBtYXJrZXJIZWlnaHQ9IjYiIHN0eWxlPSJmaWxsOiMwMDQxYzQiIGlkPSJ0ZWUiPjxwYXRoIHN0eWxlPSJzdHJva2U6IzAwNDFjNDtzdHJva2Utd2lkdGg6MiIgZD0iTSAwIDAgTCAwIDYiLz48L21hcmtlcj48L2RlZnM+PGcgaWQ9IndhdmVzXzAiPjxnIGlkPSJsYW5lc18wIiB0cmFuc2Zvcm09InRyYW5zbGF0ZSgxNDAuNSwwLjUpIj48ZyBpZD0iZ21hcmtzXzAiPjxnIHN0eWxlPSJzdHJva2U6Izg4ODtzdHJva2Utd2lkdGg6MC41O3N0cm9rZS1kYXNoYXJyYXk6MSwzIj48bGluZSB5Mj0iMjEwIiB4Mj0iMCIgeTE9IjAiIHgxPSIwIiBpZD0iZ21hcmtfMF8wIi8+PGxpbmUgeTI9IjIxMCIgeDI9IjIwIiB5MT0iMCIgeDE9IjIwIiBpZD0iZ21hcmtfMV8wIi8+PGxpbmUgeTI9IjIxMCIgeDI9IjQwIiB5MT0iMCIgeDE9IjQwIiBpZD0iZ21hcmtfMl8wIi8+PGxpbmUgeTI9IjIxMCIgeDI9IjYwIiB5MT0iMCIgeDE9IjYwIiBpZD0iZ21hcmtfM18wIi8+PGxpbmUgeTI9IjIxMCIgeDI9IjgwIiB5MT0iMCIgeDE9IjgwIiBpZD0iZ21hcmtfNF8wIi8+PGxpbmUgeTI9IjIxMCIgeDI9IjEwMCIgeTE9IjAiIHgxPSIxMDAiIGlkPSJnbWFya181XzAiLz48bGluZSB5Mj0iMjEwIiB4Mj0iMTIwIiB5MT0iMCIgeDE9IjEyMCIgaWQ9ImdtYXJrXzZfMCIvPjxsaW5lIHkyPSIyMTAiIHgyPSIxNDAiIHkxPSIwIiB4MT0iMTQwIiBpZD0iZ21hcmtfN18wIi8+PGxpbmUgeTI9IjIxMCIgeDI9IjE2MCIgeTE9IjAiIHgxPSIxNjAiIGlkPSJnbWFya184XzAiLz48bGluZSB5Mj0iMjEwIiB4Mj0iMTgwIiB5MT0iMCIgeDE9IjE4MCIgaWQ9ImdtYXJrXzlfMCIvPjxsaW5lIHkyPSIyMTAiIHgyPSIyMDAiIHkxPSIwIiB4MT0iMjAwIiBpZD0iZ21hcmtfMTBfMCIvPjxsaW5lIHkyPSIyMTAiIHgyPSIyMjAiIHkxPSIwIiB4MT0iMjIwIiBpZD0iZ21hcmtfMTFfMCIvPjxsaW5lIHkyPSIyMTAiIHgyPSIyNDAiIHkxPSIwIiB4MT0iMjQwIiBpZD0iZ21hcmtfMTJfMCIvPjxsaW5lIHkyPSIyMTAiIHgyPSIyNjAiIHkxPSIwIiB4MT0iMjYwIiBpZD0iZ21hcmtfMTNfMCIvPjxsaW5lIHkyPSIyMTAiIHgyPSIyODAiIHkxPSIwIiB4MT0iMjgwIiBpZD0iZ21hcmtfMTRfMCIvPjxsaW5lIHkyPSIyMTAiIHgyPSIzMDAiIHkxPSIwIiB4MT0iMzAwIiBpZD0iZ21hcmtfMTVfMCIvPjxsaW5lIHkyPSIyMTAiIHgyPSIzMjAiIHkxPSIwIiB4MT0iMzIwIiBpZD0iZ21hcmtfMTZfMCIvPjwvZz48L2c+PGcgaWQ9IndhdmVsYW5lXzBfMCIgdHJhbnNmb3JtPSJ0cmFuc2xhdGUoMCw1KSI+PHRleHQgeG1sOnNwYWNlPSJwcmVzZXJ2ZSIgdGV4dC1hbmNob3I9ImVuZCIgY2xhc3M9ImluZm8iIHk9IjE1IiB4PSItMTAiPjx0c3Bhbj5jbGs8L3RzcGFuPjwvdGV4dD48ZyBpZD0id2F2ZWxhbmVfZHJhd18wXzAiPjx1c2UgeGxpbms6aHJlZj0iI1BjbGsiLz48dXNlIHhsaW5rOmhyZWY9IiMxMTEiIHRyYW5zZm9ybT0idHJhbnNsYXRlKDEwKSIvPjx1c2UgeGxpbms6aHJlZj0iI25jbGsiIHRyYW5zZm9ybT0idHJhbnNsYXRlKDIwKSIvPjx1c2UgeGxpbms6aHJlZj0iIzAwMCIgdHJhbnNmb3JtPSJ0cmFuc2xhdGUoMzApIi8+PHVzZSB4bGluazpocmVmPSIjUGNsayIgdHJhbnNmb3JtPSJ0cmFuc2xhdGUoNDApIi8+PHVzZSB4bGluazpocmVmPSIjMTExIiB0cmFuc2Zvcm09InRyYW5zbGF0ZSg1MCkiLz48dXNlIHhsaW5rOmhyZWY9IiNuY2xrIiB0cmFuc2Zvcm09InRyYW5zbGF0ZSg2MCkiLz48dXNlIHhsaW5rOmhyZWY9IiMwMDAiIHRyYW5zZm9ybT0idHJhbnNsYXRlKDcwKSIvPjx1c2UgeGxpbms6aHJlZj0iI1BjbGsiIHRyYW5zZm9ybT0idHJhbnNsYXRlKDgwKSIvPjx1c2UgeGxpbms6aHJlZj0iIzExMSIgdHJhbnNmb3JtPSJ0cmFuc2xhdGUoOTApIi8+PHVzZSB4bGluazpocmVmPSIjbmNsayIgdHJhbnNmb3JtPSJ0cmFuc2xhdGUoMTAwKSIvPjx1c2UgeGxpbms6aHJlZj0iIzAwMCIgdHJhbnNmb3JtPSJ0cmFuc2xhdGUoMTEwKSIvPjx1c2UgeGxpbms6aHJlZj0iI1BjbGsiIHRyYW5zZm9ybT0idHJhbnNsYXRlKDEyMCkiLz48dXNlIHhsaW5rOmhyZWY9IiMxMTEiIHRyYW5zZm9ybT0idHJhbnNsYXRlKDEzMCkiLz48dXNlIHhsaW5rOmhyZWY9IiNuY2xrIiB0cmFuc2Zvcm09InRyYW5zbGF0ZSgxNDApIi8+PHVzZSB4bGluazpocmVmPSIjMDAwIiB0cmFuc2Zvcm09InRyYW5zbGF0ZSgxNTApIi8+PHVzZSB4bGluazpocmVmPSIjUGNsayIgdHJhbnNmb3JtPSJ0cmFuc2xhdGUoMTYwKSIvPjx1c2UgeGxpbms6aHJlZj0iIzExMSIgdHJhbnNmb3JtPSJ0cmFuc2xhdGUoMTcwKSIvPjx1c2UgeGxpbms6aHJlZj0iI25jbGsiIHRyYW5zZm9ybT0idHJhbnNsYXRlKDE4MCkiLz48dXNlIHhsaW5rOmhyZWY9IiMwMDAiIHRyYW5zZm9ybT0idHJhbnNsYXRlKDE5MCkiLz48dXNlIHhsaW5rOmhyZWY9IiNQY2xrIiB0cmFuc2Zvcm09InRyYW5zbGF0ZSgyMDApIi8+PHVzZSB4bGluazpocmVmPSIjMTExIiB0cmFuc2Zvcm09InRyYW5zbGF0ZSgyMTApIi8+PHVzZSB4bGluazpocmVmPSIjbmNsayIgdHJhbnNmb3JtPSJ0cmFuc2xhdGUoMjIwKSIvPjx1c2UgeGxpbms6aHJlZj0iIzAwMCIgdHJhbnNmb3JtPSJ0cmFuc2xhdGUoMjMwKSIvPjx1c2UgeGxpbms6aHJlZj0iI1BjbGsiIHRyYW5zZm9ybT0idHJhbnNsYXRlKDI0MCkiLz48dXNlIHhsaW5rOmhyZWY9IiMxMTEiIHRyYW5zZm9ybT0idHJhbnNsYXRlKDI1MCkiLz48dXNlIHhsaW5rOmhyZWY9IiNuY2xrIiB0cmFuc2Zvcm09InRyYW5zbGF0ZSgyNjApIi8+PHVzZSB4bGluazpocmVmPSIjMDAwIiB0cmFuc2Zvcm09InRyYW5zbGF0ZSgyNzApIi8+PHVzZSB4bGluazpocmVmPSIjUGNsayIgdHJhbnNmb3JtPSJ0cmFuc2xhdGUoMjgwKSIvPjx1c2UgeGxpbms6aHJlZj0iIzExMSIgdHJhbnNmb3JtPSJ0cmFuc2xhdGUoMjkwKSIvPjx1c2UgeGxpbms6aHJlZj0iI25jbGsiIHRyYW5zZm9ybT0idHJhbnNsYXRlKDMwMCkiLz48dXNlIHhsaW5rOmhyZWY9IiMwMDAiIHRyYW5zZm9ybT0idHJhbnNsYXRlKDMxMCkiLz48L2c+PC9nPjxnIGlkPSJ3YXZlbGFuZV8xXzAiIHRyYW5zZm9ybT0idHJhbnNsYXRlKDAsMzUpIj48dGV4dCB4bWw6c3BhY2U9InByZXNlcnZlIiB0ZXh0LWFuY2hvcj0iZW5kIiBjbGFzcz0iaW5mbyIgeT0iMTUiIHg9Ii0xMCI+PHRzcGFuPmlucHV0IHN0cmVhbSBkYXRhPC90c3Bhbj48L3RleHQ+PGcgaWQ9IndhdmVsYW5lX2RyYXdfMV8wIj48dXNlIHhsaW5rOmhyZWY9IiN2dnYtMyIvPjx1c2UgeGxpbms6aHJlZj0iI3Z2di0zIiB0cmFuc2Zvcm09InRyYW5zbGF0ZSgxMCkiLz48dXNlIHhsaW5rOmhyZWY9IiN2dnYtMyIgdHJhbnNmb3JtPSJ0cmFuc2xhdGUoMjApIi8+PHVzZSB4bGluazpocmVmPSIjdnZ2LTMiIHRyYW5zZm9ybT0idHJhbnNsYXRlKDMwKSIvPjx1c2UgeGxpbms6aHJlZj0iI3Ztdi0zLTMiIHRyYW5zZm9ybT0idHJhbnNsYXRlKDQwKSIvPjx1c2UgeGxpbms6aHJlZj0iI3Z2di0zIiB0cmFuc2Zvcm09InRyYW5zbGF0ZSg1MCkiLz48dXNlIHhsaW5rOmhyZWY9IiN2dnYtMyIgdHJhbnNmb3JtPSJ0cmFuc2xhdGUoNjApIi8+PHVzZSB4bGluazpocmVmPSIjdnZ2LTMiIHRyYW5zZm9ybT0idHJhbnNsYXRlKDcwKSIvPjx1c2UgeGxpbms6aHJlZj0iI3Ztdi0zLTMiIHRyYW5zZm9ybT0idHJhbnNsYXRlKDgwKSIvPjx1c2UgeGxpbms6aHJlZj0iI3Z2di0zIiB0cmFuc2Zvcm09InRyYW5zbGF0ZSg5MCkiLz48dXNlIHhsaW5rOmhyZWY9IiN2dnYtMyIgdHJhbnNmb3JtPSJ0cmFuc2xhdGUoMTAwKSIvPjx1c2UgeGxpbms6aHJlZj0iI3Z2di0zIiB0cmFuc2Zvcm09InRyYW5zbGF0ZSgxMTApIi8+PHVzZSB4bGluazpocmVmPSIjdm12LTMtMyIgdHJhbnNmb3JtPSJ0cmFuc2xhdGUoMTIwKSIvPjx1c2UgeGxpbms6aHJlZj0iI3Z2di0zIiB0cmFuc2Zvcm09InRyYW5zbGF0ZSgxMzApIi8+PHVzZSB4bGluazpocmVmPSIjdnZ2LTMiIHRyYW5zZm9ybT0idHJhbnNsYXRlKDE0MCkiLz48dXNlIHhsaW5rOmhyZWY9IiN2dnYtMyIgdHJhbnNmb3JtPSJ0cmFuc2xhdGUoMTUwKSIvPjx1c2UgeGxpbms6aHJlZj0iI3Ztdi0zLTMiIHRyYW5zZm9ybT0idHJhbnNsYXRlKDE2MCkiLz48dXNlIHhsaW5rOmhyZWY9IiN2dnYtMyIgdHJhbnNmb3JtPSJ0cmFuc2xhdGUoMTcwKSIvPjx1c2UgeGxpbms6aHJlZj0iI3Z2di0zIiB0cmFuc2Zvcm09InRyYW5zbGF0ZSgxODApIi8+PHVzZSB4bGluazpocmVmPSIjdnZ2LTMiIHRyYW5zZm9ybT0idHJhbnNsYXRlKDE5MCkiLz48dXNlIHhsaW5rOmhyZWY9IiN2bXYtMy0zIiB0cmFuc2Zvcm09InRyYW5zbGF0ZSgyMDApIi8+PHVzZSB4bGluazpocmVmPSIjdnZ2LTMiIHRyYW5zZm9ybT0idHJhbnNsYXRlKDIxMCkiLz48dXNlIHhsaW5rOmhyZWY9IiN2dnYtMyIgdHJhbnNmb3JtPSJ0cmFuc2xhdGUoMjIwKSIvPjx1c2UgeGxpbms6aHJlZj0iI3Z2di0zIiB0cmFuc2Zvcm09InRyYW5zbGF0ZSgyMzApIi8+PHVzZSB4bGluazpocmVmPSIjdm12LTMtMyIgdHJhbnNmb3JtPSJ0cmFuc2xhdGUoMjQwKSIvPjx1c2UgeGxpbms6aHJlZj0iI3Z2di0zIiB0cmFuc2Zvcm09InRyYW5zbGF0ZSgyNTApIi8+PHVzZSB4bGluazpocmVmPSIjdnZ2LTMiIHRyYW5zZm9ybT0idHJhbnNsYXRlKDI2MCkiLz48dXNlIHhsaW5rOmhyZWY9IiN2dnYtMyIgdHJhbnNmb3JtPSJ0cmFuc2xhdGUoMjcwKSIvPjx1c2UgeGxpbms6aHJlZj0iI3Ztdi0zLTMiIHRyYW5zZm9ybT0idHJhbnNsYXRlKDI4MCkiLz48dXNlIHhsaW5rOmhyZWY9IiN2dnYtMyIgdHJhbnNmb3JtPSJ0cmFuc2xhdGUoMjkwKSIvPjx1c2UgeGxpbms6aHJlZj0iI3Z2di0zIiB0cmFuc2Zvcm09InRyYW5zbGF0ZSgzMDApIi8+PHVzZSB4bGluazpocmVmPSIjdnZ2LTMiIHRyYW5zZm9ybT0idHJhbnNsYXRlKDMxMCkiLz48dGV4dCB4bWw6c3BhY2U9InByZXNlcnZlIiB0ZXh0LWFuY2hvcj0ibWlkZGxlIiB5PSIxNSIgeD0iMTkiPjx0c3Bhbj44PC90c3Bhbj48L3RleHQ+PHRleHQgeG1sOnNwYWNlPSJwcmVzZXJ2ZSIgdGV4dC1hbmNob3I9Im1pZGRsZSIgeT0iMTUiIHg9IjY0Ij48dHNwYW4+MTI8L3RzcGFuPjwvdGV4dD48dGV4dCB4bWw6c3BhY2U9InByZXNlcnZlIiB0ZXh0LWFuY2hvcj0ibWlkZGxlIiB5PSIxNSIgeD0iMTA0Ij48dHNwYW4+NDwvdHNwYW4+PC90ZXh0Pjx0ZXh0IHhtbDpzcGFjZT0icHJlc2VydmUiIHRleHQtYW5jaG9yPSJtaWRkbGUiIHk9IjE1IiB4PSIxNDQiPjx0c3Bhbj4yPC90c3Bhbj48L3RleHQ+PHRleHQgeG1sOnNwYWNlPSJwcmVzZXJ2ZSIgdGV4dC1hbmNob3I9Im1pZGRsZSIgeT0iMTUiIHg9IjE4NCI+PHRzcGFuPjM8L3RzcGFuPjwvdGV4dD48dGV4dCB4bWw6c3BhY2U9InByZXNlcnZlIiB0ZXh0LWFuY2hvcj0ibWlkZGxlIiB5PSIxNSIgeD0iMjI0Ij48dHNwYW4+MTM8L3RzcGFuPjwvdGV4dD48dGV4dCB4bWw6c3BhY2U9InByZXNlcnZlIiB0ZXh0LWFuY2hvcj0ibWlkZGxlIiB5PSIxNSIgeD0iMjY0Ij48dHNwYW4+MTY8L3RzcGFuPjwvdGV4dD48dGV4dCB4bWw6c3BhY2U9InByZXNlcnZlIiB0ZXh0LWFuY2hvcj0ibWlkZGxlIiB5PSIxNSIgeD0iMzA0Ij48dHNwYW4+MTwvdHNwYW4+PC90ZXh0PjwvZz48L2c+PGcgaWQ9IndhdmVsYW5lXzJfMCIgdHJhbnNmb3JtPSJ0cmFuc2xhdGUoMCw2NSkiPjx0ZXh0IHhtbDpzcGFjZT0icHJlc2VydmUiIHRleHQtYW5jaG9yPSJlbmQiIGNsYXNzPSJpbmZvIiB5PSIxNSIgeD0iLTEwIj48dHNwYW4+b3V0cHV0IHN0cmVhbSBkYXRhPC90c3Bhbj48L3RleHQ+PGcgaWQ9IndhdmVsYW5lX2RyYXdfMl8wIj48dXNlIHhsaW5rOmhyZWY9IiN4eHgiLz48dXNlIHhsaW5rOmhyZWY9IiN4eHgiIHRyYW5zZm9ybT0idHJhbnNsYXRlKDEwKSIvPjx1c2UgeGxpbms6aHJlZj0iI3h4eCIgdHJhbnNmb3JtPSJ0cmFuc2xhdGUoMjApIi8+PHVzZSB4bGluazpocmVmPSIjeHh4IiB0cmFuc2Zvcm09InRyYW5zbGF0ZSgzMCkiLz48dXNlIHhsaW5rOmhyZWY9IiN4bXgiIHRyYW5zZm9ybT0idHJhbnNsYXRlKDQwKSIvPjx1c2UgeGxpbms6aHJlZj0iI3h4eCIgdHJhbnNmb3JtPSJ0cmFuc2xhdGUoNTApIi8+PHVzZSB4bGluazpocmVmPSIjeHh4IiB0cmFuc2Zvcm09InRyYW5zbGF0ZSg2MCkiLz48dXNlIHhsaW5rOmhyZWY9IiN4eHgiIHRyYW5zZm9ybT0idHJhbnNsYXRlKDcwKSIvPjx1c2UgeGxpbms6aHJlZj0iI3hteCIgdHJhbnNmb3JtPSJ0cmFuc2xhdGUoODApIi8+PHVzZSB4bGluazpocmVmPSIjeHh4IiB0cmFuc2Zvcm09InRyYW5zbGF0ZSg5MCkiLz48dXNlIHhsaW5rOmhyZWY9IiN4eHgiIHRyYW5zZm9ybT0idHJhbnNsYXRlKDEwMCkiLz48dXNlIHhsaW5rOmhyZWY9IiN4eHgiIHRyYW5zZm9ybT0idHJhbnNsYXRlKDExMCkiLz48dXNlIHhsaW5rOmhyZWY9IiN4bXgiIHRyYW5zZm9ybT0idHJhbnNsYXRlKDEyMCkiLz48dXNlIHhsaW5rOmhyZWY9IiN4eHgiIHRyYW5zZm9ybT0idHJhbnNsYXRlKDEzMCkiLz48dXNlIHhsaW5rOmhyZWY9IiN4eHgiIHRyYW5zZm9ybT0idHJhbnNsYXRlKDE0MCkiLz48dXNlIHhsaW5rOmhyZWY9IiN4eHgiIHRyYW5zZm9ybT0idHJhbnNsYXRlKDE1MCkiLz48dXNlIHhsaW5rOmhyZWY9IiN4bXYtNSIgdHJhbnNmb3JtPSJ0cmFuc2xhdGUoMTYwKSIvPjx1c2UgeGxpbms6aHJlZj0iI3Z2di01IiB0cmFuc2Zvcm09InRyYW5zbGF0ZSgxNzApIi8+PHVzZSB4bGluazpocmVmPSIjdnZ2LTUiIHRyYW5zZm9ybT0idHJhbnNsYXRlKDE4MCkiLz48dXNlIHhsaW5rOmhyZWY9IiN2dnYtNSIgdHJhbnNmb3JtPSJ0cmFuc2xhdGUoMTkwKSIvPjx1c2UgeGxpbms6aHJlZj0iI3Ztdi01LTUiIHRyYW5zZm9ybT0idHJhbnNsYXRlKDIwMCkiLz48dXNlIHhsaW5rOmhyZWY9IiN2dnYtNSIgdHJhbnNmb3JtPSJ0cmFuc2xhdGUoMjEwKSIvPjx1c2UgeGxpbms6aHJlZj0iI3Z2di01IiB0cmFuc2Zvcm09InRyYW5zbGF0ZSgyMjApIi8+PHVzZSB4bGluazpocmVmPSIjdnZ2LTUiIHRyYW5zZm9ybT0idHJhbnNsYXRlKDIzMCkiLz48dXNlIHhsaW5rOmhyZWY9IiN2bXYtNS01IiB0cmFuc2Zvcm09InRyYW5zbGF0ZSgyNDApIi8+PHVzZSB4bGluazpocmVmPSIjdnZ2LTUiIHRyYW5zZm9ybT0idHJhbnNsYXRlKDI1MCkiLz48dXNlIHhsaW5rOmhyZWY9IiN2dnYtNSIgdHJhbnNmb3JtPSJ0cmFuc2xhdGUoMjYwKSIvPjx1c2UgeGxpbms6aHJlZj0iI3Z2di01IiB0cmFuc2Zvcm09InRyYW5zbGF0ZSgyNzApIi8+PHVzZSB4bGluazpocmVmPSIjdm12LTUtNSIgdHJhbnNmb3JtPSJ0cmFuc2xhdGUoMjgwKSIvPjx1c2UgeGxpbms6aHJlZj0iI3Z2di01IiB0cmFuc2Zvcm09InRyYW5zbGF0ZSgyOTApIi8+PHVzZSB4bGluazpocmVmPSIjdnZ2LTUiIHRyYW5zZm9ybT0idHJhbnNsYXRlKDMwMCkiLz48dXNlIHhsaW5rOmhyZWY9IiN2dnYtNSIgdHJhbnNmb3JtPSJ0cmFuc2xhdGUoMzEwKSIvPjx0ZXh0IHhtbDpzcGFjZT0icHJlc2VydmUiIHRleHQtYW5jaG9yPSJtaWRkbGUiIHk9IjE1IiB4PSIxODQiPjx0c3Bhbj4yPC90c3Bhbj48L3RleHQ+PHRleHQgeG1sOnNwYWNlPSJwcmVzZXJ2ZSIgdGV4dC1hbmNob3I9Im1pZGRsZSIgeT0iMTUiIHg9IjIyNCI+PHRzcGFuPjM8L3RzcGFuPjwvdGV4dD48dGV4dCB4bWw6c3BhY2U9InByZXNlcnZlIiB0ZXh0LWFuY2hvcj0ibWlkZGxlIiB5PSIxNSIgeD0iMjY0Ij48dHNwYW4+NDwvdHNwYW4+PC90ZXh0Pjx0ZXh0IHhtbDpzcGFjZT0icHJlc2VydmUiIHRleHQtYW5jaG9yPSJtaWRkbGUiIHk9IjE1IiB4PSIzMDQiPjx0c3Bhbj44PC90c3Bhbj48L3RleHQ+PC9nPjwvZz48ZyBpZD0id2F2ZWxhbmVfM18wIiB0cmFuc2Zvcm09InRyYW5zbGF0ZSgwLDk1KSI+PHRleHQgeG1sOnNwYWNlPSJwcmVzZXJ2ZSIgdGV4dC1hbmNob3I9ImVuZCIgY2xhc3M9ImluZm8iIHk9IjE1IiB4PSItMTAiPjx0c3Bhbj5zb3J0IGRhdGEgWzBdIDwvdHNwYW4+PC90ZXh0PjxnIGlkPSJ3YXZlbGFuZV9kcmF3XzNfMCI+PHVzZSB4bGluazpocmVmPSIjeHh4Ii8+PHVzZSB4bGluazpocmVmPSIjeHh4IiB0cmFuc2Zvcm09InRyYW5zbGF0ZSgxMCkiLz48dXNlIHhsaW5rOmhyZWY9IiN4eHgiIHRyYW5zZm9ybT0idHJhbnNsYXRlKDIwKSIvPjx1c2UgeGxpbms6aHJlZj0iI3h4eCIgdHJhbnNmb3JtPSJ0cmFuc2xhdGUoMzApIi8+PHVzZSB4bGluazpocmVmPSIjeG12LTMiIHRyYW5zZm9ybT0idHJhbnNsYXRlKDQwKSIvPjx1c2UgeGxpbms6aHJlZj0iI3Z2di0zIiB0cmFuc2Zvcm09InRyYW5zbGF0ZSg1MCkiLz48dXNlIHhsaW5rOmhyZWY9IiN2dnYtMyIgdHJhbnNmb3JtPSJ0cmFuc2xhdGUoNjApIi8+PHVzZSB4bGluazpocmVmPSIjdnZ2LTMiIHRyYW5zZm9ybT0idHJhbnNsYXRlKDcwKSIvPjx1c2UgeGxpbms6aHJlZj0iI3Ztdi0zLTUiIHRyYW5zZm9ybT0idHJhbnNsYXRlKDgwKSIvPjx1c2UgeGxpbms6aHJlZj0iI3Z2di01IiB0cmFuc2Zvcm09InRyYW5zbGF0ZSg5MCkiLz48dXNlIHhsaW5rOmhyZWY9IiN2dnYtNSIgdHJhbnNmb3JtPSJ0cmFuc2xhdGUoMTAwKSIvPjx1c2UgeGxpbms6aHJlZj0iI3Z2di01IiB0cmFuc2Zvcm09InRyYW5zbGF0ZSgxMTApIi8+PHVzZSB4bGluazpocmVmPSIjdm12LTUtNiIgdHJhbnNmb3JtPSJ0cmFuc2xhdGUoMTIwKSIvPjx1c2UgeGxpbms6aHJlZj0iI3Z2di02IiB0cmFuc2Zvcm09InRyYW5zbGF0ZSgxMzApIi8+PHVzZSB4bGluazpocmVmPSIjdnZ2LTYiIHRyYW5zZm9ybT0idHJhbnNsYXRlKDE0MCkiLz48dXNlIHhsaW5rOmhyZWY9IiN2dnYtNiIgdHJhbnNmb3JtPSJ0cmFuc2xhdGUoMTUwKSIvPjx1c2UgeGxpbms6aHJlZj0iI3Ztdi02LTciIHRyYW5zZm9ybT0idHJhbnNsYXRlKDE2MCkiLz48dXNlIHhsaW5rOmhyZWY9IiN2dnYtNyIgdHJhbnNmb3JtPSJ0cmFuc2xhdGUoMTcwKSIvPjx1c2UgeGxpbms6aHJlZj0iI3Z2di03IiB0cmFuc2Zvcm09InRyYW5zbGF0ZSgxODApIi8+PHVzZSB4bGluazpocmVmPSIjdnZ2LTciIHRyYW5zZm9ybT0idHJhbnNsYXRlKDE5MCkiLz48dXNlIHhsaW5rOmhyZWY9IiN2bXYtNy04IiB0cmFuc2Zvcm09InRyYW5zbGF0ZSgyMDApIi8+PHVzZSB4bGluazpocmVmPSIjdnZ2LTgiIHRyYW5zZm9ybT0idHJhbnNsYXRlKDIxMCkiLz48dXNlIHhsaW5rOmhyZWY9IiN2dnYtOCIgdHJhbnNmb3JtPSJ0cmFuc2xhdGUoMjIwKSIvPjx1c2UgeGxpbms6aHJlZj0iI3Z2di04IiB0cmFuc2Zvcm09InRyYW5zbGF0ZSgyMzApIi8+PHVzZSB4bGluazpocmVmPSIjdm12LTgtOSIgdHJhbnNmb3JtPSJ0cmFuc2xhdGUoMjQwKSIvPjx1c2UgeGxpbms6aHJlZj0iI3Z2di05IiB0cmFuc2Zvcm09InRyYW5zbGF0ZSgyNTApIi8+PHVzZSB4bGluazpocmVmPSIjdnZ2LTkiIHRyYW5zZm9ybT0idHJhbnNsYXRlKDI2MCkiLz48dXNlIHhsaW5rOmhyZWY9IiN2dnYtOSIgdHJhbnNmb3JtPSJ0cmFuc2xhdGUoMjcwKSIvPjx1c2UgeGxpbms6aHJlZj0iI3Ztdi05LTIiIHRyYW5zZm9ybT0idHJhbnNsYXRlKDI4MCkiLz48dXNlIHhsaW5rOmhyZWY9IiN2dnYtMiIgdHJhbnNmb3JtPSJ0cmFuc2xhdGUoMjkwKSIvPjx1c2UgeGxpbms6aHJlZj0iI3Z2di0yIiB0cmFuc2Zvcm09InRyYW5zbGF0ZSgzMDApIi8+PHVzZSB4bGluazpocmVmPSIjdnZ2LTIiIHRyYW5zZm9ybT0idHJhbnNsYXRlKDMxMCkiLz48dGV4dCB4bWw6c3BhY2U9InByZXNlcnZlIiB0ZXh0LWFuY2hvcj0ibWlkZGxlIiB5PSIxNSIgeD0iNjQiPjx0c3Bhbj44PC90c3Bhbj48L3RleHQ+PHRleHQgeG1sOnNwYWNlPSJwcmVzZXJ2ZSIgdGV4dC1hbmNob3I9Im1pZGRsZSIgeT0iMTUiIHg9IjEwNCI+PHRzcGFuPjg8L3RzcGFuPjwvdGV4dD48dGV4dCB4bWw6c3BhY2U9InByZXNlcnZlIiB0ZXh0LWFuY2hvcj0ibWlkZGxlIiB5PSIxNSIgeD0iMTQ0Ij48dHNwYW4+NDwvdHNwYW4+PC90ZXh0Pjx0ZXh0IHhtbDpzcGFjZT0icHJlc2VydmUiIHRleHQtYW5jaG9yPSJtaWRkbGUiIHk9IjE1IiB4PSIxODQiPjx0c3Bhbj4yPC90c3Bhbj48L3RleHQ+PHRleHQgeG1sOnNwYWNlPSJwcmVzZXJ2ZSIgdGV4dC1hbmNob3I9Im1pZGRsZSIgeT0iMTUiIHg9IjIyNCI+PHRzcGFuPjM8L3RzcGFuPjwvdGV4dD48dGV4dCB4bWw6c3BhY2U9InByZXNlcnZlIiB0ZXh0LWFuY2hvcj0ibWlkZGxlIiB5PSIxNSIgeD0iMjY0Ij48dHNwYW4+NDwvdHNwYW4+PC90ZXh0Pjx0ZXh0IHhtbDpzcGFjZT0icHJlc2VydmUiIHRleHQtYW5jaG9yPSJtaWRkbGUiIHk9IjE1IiB4PSIzMDQiPjx0c3Bhbj44PC90c3Bhbj48L3RleHQ+PC9nPjwvZz48ZyBpZD0id2F2ZWxhbmVfNF8wIiB0cmFuc2Zvcm09InRyYW5zbGF0ZSgwLDEyNSkiPjx0ZXh0IHhtbDpzcGFjZT0icHJlc2VydmUiIHRleHQtYW5jaG9yPSJlbmQiIGNsYXNzPSJpbmZvIiB5PSIxNSIgeD0iLTEwIj48dHNwYW4+c29ydCBkYXRhIFsxXTwvdHNwYW4+PC90ZXh0PjxnIGlkPSJ3YXZlbGFuZV9kcmF3XzRfMCI+PHVzZSB4bGluazpocmVmPSIjeHh4Ii8+PHVzZSB4bGluazpocmVmPSIjeHh4IiB0cmFuc2Zvcm09InRyYW5zbGF0ZSgxMCkiLz48dXNlIHhsaW5rOmhyZWY9IiN4eHgiIHRyYW5zZm9ybT0idHJhbnNsYXRlKDIwKSIvPjx1c2UgeGxpbms6aHJlZj0iI3h4eCIgdHJhbnNmb3JtPSJ0cmFuc2xhdGUoMzApIi8+PHVzZSB4bGluazpocmVmPSIjeG14IiB0cmFuc2Zvcm09InRyYW5zbGF0ZSg0MCkiLz48dXNlIHhsaW5rOmhyZWY9IiN4eHgiIHRyYW5zZm9ybT0idHJhbnNsYXRlKDUwKSIvPjx1c2UgeGxpbms6aHJlZj0iI3h4eCIgdHJhbnNmb3JtPSJ0cmFuc2xhdGUoNjApIi8+PHVzZSB4bGluazpocmVmPSIjeHh4IiB0cmFuc2Zvcm09InRyYW5zbGF0ZSg3MCkiLz48dXNlIHhsaW5rOmhyZWY9IiN4bXYtNSIgdHJhbnNmb3JtPSJ0cmFuc2xhdGUoODApIi8+PHVzZSB4bGluazpocmVmPSIjdnZ2LTUiIHRyYW5zZm9ybT0idHJhbnNsYXRlKDkwKSIvPjx1c2UgeGxpbms6aHJlZj0iI3Z2di01IiB0cmFuc2Zvcm09InRyYW5zbGF0ZSgxMDApIi8+PHVzZSB4bGluazpocmVmPSIjdnZ2LTUiIHRyYW5zZm9ybT0idHJhbnNsYXRlKDExMCkiLz48dXNlIHhsaW5rOmhyZWY9IiN2bXYtNS02IiB0cmFuc2Zvcm09InRyYW5zbGF0ZSgxMjApIi8+PHVzZSB4bGluazpocmVmPSIjdnZ2LTYiIHRyYW5zZm9ybT0idHJhbnNsYXRlKDEzMCkiLz48dXNlIHhsaW5rOmhyZWY9IiN2dnYtNiIgdHJhbnNmb3JtPSJ0cmFuc2xhdGUoMTQwKSIvPjx1c2UgeGxpbms6aHJlZj0iI3Z2di02IiB0cmFuc2Zvcm09InRyYW5zbGF0ZSgxNTApIi8+PHVzZSB4bGluazpocmVmPSIjdm12LTYtNyIgdHJhbnNmb3JtPSJ0cmFuc2xhdGUoMTYwKSIvPjx1c2UgeGxpbms6aHJlZj0iI3Z2di03IiB0cmFuc2Zvcm09InRyYW5zbGF0ZSgxNzApIi8+PHVzZSB4bGluazpocmVmPSIjdnZ2LTciIHRyYW5zZm9ybT0idHJhbnNsYXRlKDE4MCkiLz48dXNlIHhsaW5rOmhyZWY9IiN2dnYtNyIgdHJhbnNmb3JtPSJ0cmFuc2xhdGUoMTkwKSIvPjx1c2UgeGxpbms6aHJlZj0iI3Ztdi03LTgiIHRyYW5zZm9ybT0idHJhbnNsYXRlKDIwMCkiLz48dXNlIHhsaW5rOmhyZWY9IiN2dnYtOCIgdHJhbnNmb3JtPSJ0cmFuc2xhdGUoMjEwKSIvPjx1c2UgeGxpbms6aHJlZj0iI3Z2di04IiB0cmFuc2Zvcm09InRyYW5zbGF0ZSgyMjApIi8+PHVzZSB4bGluazpocmVmPSIjdnZ2LTgiIHRyYW5zZm9ybT0idHJhbnNsYXRlKDIzMCkiLz48dXNlIHhsaW5rOmhyZWY9IiN2bXYtOC05IiB0cmFuc2Zvcm09InRyYW5zbGF0ZSgyNDApIi8+PHVzZSB4bGluazpocmVmPSIjdnZ2LTkiIHRyYW5zZm9ybT0idHJhbnNsYXRlKDI1MCkiLz48dXNlIHhsaW5rOmhyZWY9IiN2dnYtOSIgdHJhbnNmb3JtPSJ0cmFuc2xhdGUoMjYwKSIvPjx1c2UgeGxpbms6aHJlZj0iI3Z2di05IiB0cmFuc2Zvcm09InRyYW5zbGF0ZSgyNzApIi8+PHVzZSB4bGluazpocmVmPSIjdm12LTktMiIgdHJhbnNmb3JtPSJ0cmFuc2xhdGUoMjgwKSIvPjx1c2UgeGxpbms6aHJlZj0iI3Z2di0yIiB0cmFuc2Zvcm09InRyYW5zbGF0ZSgyOTApIi8+PHVzZSB4bGluazpocmVmPSIjdnZ2LTIiIHRyYW5zZm9ybT0idHJhbnNsYXRlKDMwMCkiLz48dXNlIHhsaW5rOmhyZWY9IiN2dnYtMiIgdHJhbnNmb3JtPSJ0cmFuc2xhdGUoMzEwKSIvPjx0ZXh0IHhtbDpzcGFjZT0icHJlc2VydmUiIHRleHQtYW5jaG9yPSJtaWRkbGUiIHk9IjE1IiB4PSIxMDQiPjx0c3Bhbj4xMjwvdHNwYW4+PC90ZXh0Pjx0ZXh0IHhtbDpzcGFjZT0icHJlc2VydmUiIHRleHQtYW5jaG9yPSJtaWRkbGUiIHk9IjE1IiB4PSIxNDQiPjx0c3Bhbj44PC90c3Bhbj48L3RleHQ+PHRleHQgeG1sOnNwYWNlPSJwcmVzZXJ2ZSIgdGV4dC1hbmNob3I9Im1pZGRsZSIgeT0iMTUiIHg9IjE4NCI+PHRzcGFuPjQ8L3RzcGFuPjwvdGV4dD48dGV4dCB4bWw6c3BhY2U9InByZXNlcnZlIiB0ZXh0LWFuY2hvcj0ibWlkZGxlIiB5PSIxNSIgeD0iMjI0Ij48dHNwYW4+NDwvdHNwYW4+PC90ZXh0Pjx0ZXh0IHhtbDpzcGFjZT0icHJlc2VydmUiIHRleHQtYW5jaG9yPSJtaWRkbGUiIHk9IjE1IiB4PSIyNjQiPjx0c3Bhbj44PC90c3Bhbj48L3RleHQ+PHRleHQgeG1sOnNwYWNlPSJwcmVzZXJ2ZSIgdGV4dC1hbmNob3I9Im1pZGRsZSIgeT0iMTUiIHg9IjMwNCI+PHRzcGFuPjEyPC90c3Bhbj48L3RleHQ+PC9nPjwvZz48ZyBpZD0id2F2ZWxhbmVfNV8wIiB0cmFuc2Zvcm09InRyYW5zbGF0ZSgwLDE1NSkiPjx0ZXh0IHhtbDpzcGFjZT0icHJlc2VydmUiIHRleHQtYW5jaG9yPSJlbmQiIGNsYXNzPSJpbmZvIiB5PSIxNSIgeD0iLTEwIj48dHNwYW4+c29ydCBkYXRhIFsyXTwvdHNwYW4+PC90ZXh0PjxnIGlkPSJ3YXZlbGFuZV9kcmF3XzVfMCI+PHVzZSB4bGluazpocmVmPSIjeHh4Ii8+PHVzZSB4bGluazpocmVmPSIjeHh4IiB0cmFuc2Zvcm09InRyYW5zbGF0ZSgxMCkiLz48dXNlIHhsaW5rOmhyZWY9IiN4eHgiIHRyYW5zZm9ybT0idHJhbnNsYXRlKDIwKSIvPjx1c2UgeGxpbms6aHJlZj0iI3h4eCIgdHJhbnNmb3JtPSJ0cmFuc2xhdGUoMzApIi8+PHVzZSB4bGluazpocmVmPSIjeG14IiB0cmFuc2Zvcm09InRyYW5zbGF0ZSg0MCkiLz48dXNlIHhsaW5rOmhyZWY9IiN4eHgiIHRyYW5zZm9ybT0idHJhbnNsYXRlKDUwKSIvPjx1c2UgeGxpbms6aHJlZj0iI3h4eCIgdHJhbnNmb3JtPSJ0cmFuc2xhdGUoNjApIi8+PHVzZSB4bGluazpocmVmPSIjeHh4IiB0cmFuc2Zvcm09InRyYW5zbGF0ZSg3MCkiLz48dXNlIHhsaW5rOmhyZWY9IiN4bXgiIHRyYW5zZm9ybT0idHJhbnNsYXRlKDgwKSIvPjx1c2UgeGxpbms6aHJlZj0iI3h4eCIgdHJhbnNmb3JtPSJ0cmFuc2xhdGUoOTApIi8+PHVzZSB4bGluazpocmVmPSIjeHh4IiB0cmFuc2Zvcm09InRyYW5zbGF0ZSgxMDApIi8+PHVzZSB4bGluazpocmVmPSIjeHh4IiB0cmFuc2Zvcm09InRyYW5zbGF0ZSgxMTApIi8+PHVzZSB4bGluazpocmVmPSIjeG12LTYiIHRyYW5zZm9ybT0idHJhbnNsYXRlKDEyMCkiLz48dXNlIHhsaW5rOmhyZWY9IiN2dnYtNiIgdHJhbnNmb3JtPSJ0cmFuc2xhdGUoMTMwKSIvPjx1c2UgeGxpbms6aHJlZj0iI3Z2di02IiB0cmFuc2Zvcm09InRyYW5zbGF0ZSgxNDApIi8+PHVzZSB4bGluazpocmVmPSIjdnZ2LTYiIHRyYW5zZm9ybT0idHJhbnNsYXRlKDE1MCkiLz48dXNlIHhsaW5rOmhyZWY9IiN2bXYtNi03IiB0cmFuc2Zvcm09InRyYW5zbGF0ZSgxNjApIi8+PHVzZSB4bGluazpocmVmPSIjdnZ2LTciIHRyYW5zZm9ybT0idHJhbnNsYXRlKDE3MCkiLz48dXNlIHhsaW5rOmhyZWY9IiN2dnYtNyIgdHJhbnNmb3JtPSJ0cmFuc2xhdGUoMTgwKSIvPjx1c2UgeGxpbms6aHJlZj0iI3Z2di03IiB0cmFuc2Zvcm09InRyYW5zbGF0ZSgxOTApIi8+PHVzZSB4bGluazpocmVmPSIjdm12LTctOCIgdHJhbnNmb3JtPSJ0cmFuc2xhdGUoMjAwKSIvPjx1c2UgeGxpbms6aHJlZj0iI3Z2di04IiB0cmFuc2Zvcm09InRyYW5zbGF0ZSgyMTApIi8+PHVzZSB4bGluazpocmVmPSIjdnZ2LTgiIHRyYW5zZm9ybT0idHJhbnNsYXRlKDIyMCkiLz48dXNlIHhsaW5rOmhyZWY9IiN2dnYtOCIgdHJhbnNmb3JtPSJ0cmFuc2xhdGUoMjMwKSIvPjx1c2UgeGxpbms6aHJlZj0iI3Ztdi04LTkiIHRyYW5zZm9ybT0idHJhbnNsYXRlKDI0MCkiLz48dXNlIHhsaW5rOmhyZWY9IiN2dnYtOSIgdHJhbnNmb3JtPSJ0cmFuc2xhdGUoMjUwKSIvPjx1c2UgeGxpbms6aHJlZj0iI3Z2di05IiB0cmFuc2Zvcm09InRyYW5zbGF0ZSgyNjApIi8+PHVzZSB4bGluazpocmVmPSIjdnZ2LTkiIHRyYW5zZm9ybT0idHJhbnNsYXRlKDI3MCkiLz48dXNlIHhsaW5rOmhyZWY9IiN2bXYtOS0yIiB0cmFuc2Zvcm09InRyYW5zbGF0ZSgyODApIi8+PHVzZSB4bGluazpocmVmPSIjdnZ2LTIiIHRyYW5zZm9ybT0idHJhbnNsYXRlKDI5MCkiLz48dXNlIHhsaW5rOmhyZWY9IiN2dnYtMiIgdHJhbnNmb3JtPSJ0cmFuc2xhdGUoMzAwKSIvPjx1c2UgeGxpbms6aHJlZj0iI3Z2di0yIiB0cmFuc2Zvcm09InRyYW5zbGF0ZSgzMTApIi8+PHRleHQgeG1sOnNwYWNlPSJwcmVzZXJ2ZSIgdGV4dC1hbmNob3I9Im1pZGRsZSIgeT0iMTUiIHg9IjE0NCI+PHRzcGFuPjEyPC90c3Bhbj48L3RleHQ+PHRleHQgeG1sOnNwYWNlPSJwcmVzZXJ2ZSIgdGV4dC1hbmNob3I9Im1pZGRsZSIgeT0iMTUiIHg9IjE4NCI+PHRzcGFuPjg8L3RzcGFuPjwvdGV4dD48dGV4dCB4bWw6c3BhY2U9InByZXNlcnZlIiB0ZXh0LWFuY2hvcj0ibWlkZGxlIiB5PSIxNSIgeD0iMjI0Ij48dHNwYW4+ODwvdHNwYW4+PC90ZXh0Pjx0ZXh0IHhtbDpzcGFjZT0icHJlc2VydmUiIHRleHQtYW5jaG9yPSJtaWRkbGUiIHk9IjE1IiB4PSIyNjQiPjx0c3Bhbj4xMjwvdHNwYW4+PC90ZXh0Pjx0ZXh0IHhtbDpzcGFjZT0icHJlc2VydmUiIHRleHQtYW5jaG9yPSJtaWRkbGUiIHk9IjE1IiB4PSIzMDQiPjx0c3Bhbj4xMzwvdHNwYW4+PC90ZXh0PjwvZz48L2c+PGcgaWQ9IndhdmVsYW5lXzZfMCIgdHJhbnNmb3JtPSJ0cmFuc2xhdGUoMCwxODUpIj48dGV4dCB4bWw6c3BhY2U9InByZXNlcnZlIiB0ZXh0LWFuY2hvcj0iZW5kIiBjbGFzcz0iaW5mbyIgeT0iMTUiIHg9Ii0xMCI+PHRzcGFuPnNvcnQgZGF0YSBbM108L3RzcGFuPjwvdGV4dD48ZyBpZD0id2F2ZWxhbmVfZHJhd182XzAiPjx1c2UgeGxpbms6aHJlZj0iI3h4eCIvPjx1c2UgeGxpbms6aHJlZj0iI3h4eCIgdHJhbnNmb3JtPSJ0cmFuc2xhdGUoMTApIi8+PHVzZSB4bGluazpocmVmPSIjeHh4IiB0cmFuc2Zvcm09InRyYW5zbGF0ZSgyMCkiLz48dXNlIHhsaW5rOmhyZWY9IiN4eHgiIHRyYW5zZm9ybT0idHJhbnNsYXRlKDMwKSIvPjx1c2UgeGxpbms6aHJlZj0iI3hteCIgdHJhbnNmb3JtPSJ0cmFuc2xhdGUoNDApIi8+PHVzZSB4bGluazpocmVmPSIjeHh4IiB0cmFuc2Zvcm09InRyYW5zbGF0ZSg1MCkiLz48dXNlIHhsaW5rOmhyZWY9IiN4eHgiIHRyYW5zZm9ybT0idHJhbnNsYXRlKDYwKSIvPjx1c2UgeGxpbms6aHJlZj0iI3h4eCIgdHJhbnNmb3JtPSJ0cmFuc2xhdGUoNzApIi8+PHVzZSB4bGluazpocmVmPSIjeG14IiB0cmFuc2Zvcm09InRyYW5zbGF0ZSg4MCkiLz48dXNlIHhsaW5rOmhyZWY9IiN4eHgiIHRyYW5zZm9ybT0idHJhbnNsYXRlKDkwKSIvPjx1c2UgeGxpbms6aHJlZj0iI3h4eCIgdHJhbnNmb3JtPSJ0cmFuc2xhdGUoMTAwKSIvPjx1c2UgeGxpbms6aHJlZj0iI3h4eCIgdHJhbnNmb3JtPSJ0cmFuc2xhdGUoMTEwKSIvPjx1c2UgeGxpbms6aHJlZj0iI3hteCIgdHJhbnNmb3JtPSJ0cmFuc2xhdGUoMTIwKSIvPjx1c2UgeGxpbms6aHJlZj0iI3h4eCIgdHJhbnNmb3JtPSJ0cmFuc2xhdGUoMTMwKSIvPjx1c2UgeGxpbms6aHJlZj0iI3h4eCIgdHJhbnNmb3JtPSJ0cmFuc2xhdGUoMTQwKSIvPjx1c2UgeGxpbms6aHJlZj0iI3h4eCIgdHJhbnNmb3JtPSJ0cmFuc2xhdGUoMTUwKSIvPjx1c2UgeGxpbms6aHJlZj0iI3htdi03IiB0cmFuc2Zvcm09InRyYW5zbGF0ZSgxNjApIi8+PHVzZSB4bGluazpocmVmPSIjdnZ2LTciIHRyYW5zZm9ybT0idHJhbnNsYXRlKDE3MCkiLz48dXNlIHhsaW5rOmhyZWY9IiN2dnYtNyIgdHJhbnNmb3JtPSJ0cmFuc2xhdGUoMTgwKSIvPjx1c2UgeGxpbms6aHJlZj0iI3Z2di03IiB0cmFuc2Zvcm09InRyYW5zbGF0ZSgxOTApIi8+PHVzZSB4bGluazpocmVmPSIjdm12LTctOCIgdHJhbnNmb3JtPSJ0cmFuc2xhdGUoMjAwKSIvPjx1c2UgeGxpbms6aHJlZj0iI3Z2di04IiB0cmFuc2Zvcm09InRyYW5zbGF0ZSgyMTApIi8+PHVzZSB4bGluazpocmVmPSIjdnZ2LTgiIHRyYW5zZm9ybT0idHJhbnNsYXRlKDIyMCkiLz48dXNlIHhsaW5rOmhyZWY9IiN2dnYtOCIgdHJhbnNmb3JtPSJ0cmFuc2xhdGUoMjMwKSIvPjx1c2UgeGxpbms6aHJlZj0iI3Ztdi04LTkiIHRyYW5zZm9ybT0idHJhbnNsYXRlKDI0MCkiLz48dXNlIHhsaW5rOmhyZWY9IiN2dnYtOSIgdHJhbnNmb3JtPSJ0cmFuc2xhdGUoMjUwKSIvPjx1c2UgeGxpbms6aHJlZj0iI3Z2di05IiB0cmFuc2Zvcm09InRyYW5zbGF0ZSgyNjApIi8+PHVzZSB4bGluazpocmVmPSIjdnZ2LTkiIHRyYW5zZm9ybT0idHJhbnNsYXRlKDI3MCkiLz48dXNlIHhsaW5rOmhyZWY9IiN2bXYtOS0yIiB0cmFuc2Zvcm09InRyYW5zbGF0ZSgyODApIi8+PHVzZSB4bGluazpocmVmPSIjdnZ2LTIiIHRyYW5zZm9ybT0idHJhbnNsYXRlKDI5MCkiLz48dXNlIHhsaW5rOmhyZWY9IiN2dnYtMiIgdHJhbnNmb3JtPSJ0cmFuc2xhdGUoMzAwKSIvPjx1c2UgeGxpbms6aHJlZj0iI3Z2di0yIiB0cmFuc2Zvcm09InRyYW5zbGF0ZSgzMTApIi8+PHRleHQgeG1sOnNwYWNlPSJwcmVzZXJ2ZSIgdGV4dC1hbmNob3I9Im1pZGRsZSIgeT0iMTUiIHg9IjE4NCI+PHRzcGFuPjEyPC90c3Bhbj48L3RleHQ+PHRleHQgeG1sOnNwYWNlPSJwcmVzZXJ2ZSIgdGV4dC1hbmNob3I9Im1pZGRsZSIgeT0iMTUiIHg9IjIyNCI+PHRzcGFuPjEyPC90c3Bhbj48L3RleHQ+PHRleHQgeG1sOnNwYWNlPSJwcmVzZXJ2ZSIgdGV4dC1hbmNob3I9Im1pZGRsZSIgeT0iMTUiIHg9IjI2NCI+PHRzcGFuPjEzPC90c3Bhbj48L3RleHQ+PHRleHQgeG1sOnNwYWNlPSJwcmVzZXJ2ZSIgdGV4dC1hbmNob3I9Im1pZGRsZSIgeT0iMTUiIHg9IjMwNCI+PHRzcGFuPjE2PC90c3Bhbj48L3RleHQ+PC9nPjwvZz48ZyBpZD0id2F2ZWFyY3NfMCIvPjxnIGlkPSJ3YXZlZ2Fwc18wIj48ZyBpZD0id2F2ZWdhcF8wXzAiIHRyYW5zZm9ybT0idHJhbnNsYXRlKDAsNSkiLz48ZyBpZD0id2F2ZWdhcF8xXzAiIHRyYW5zZm9ybT0idHJhbnNsYXRlKDAsMzUpIi8+PGcgaWQ9IndhdmVnYXBfMl8wIiB0cmFuc2Zvcm09InRyYW5zbGF0ZSgwLDY1KSIvPjxnIGlkPSJ3YXZlZ2FwXzNfMCIgdHJhbnNmb3JtPSJ0cmFuc2xhdGUoMCw5NSkiLz48ZyBpZD0id2F2ZWdhcF80XzAiIHRyYW5zZm9ybT0idHJhbnNsYXRlKDAsMTI1KSIvPjxnIGlkPSJ3YXZlZ2FwXzVfMCIgdHJhbnNmb3JtPSJ0cmFuc2xhdGUoMCwxNTUpIi8+PGcgaWQ9IndhdmVnYXBfNl8wIiB0cmFuc2Zvcm09InRyYW5zbGF0ZSgwLDE4NSkiLz48L2c+PGcvPjwvZz48ZyBpZD0iZ3JvdXBzXzAiPjxnLz48L2c+PC9nPjwvc3ZnPg==;" vertex="1" parent="1">
          <mxGeometry x="-1291" y="10" width="470" height="210" as="geometry" />
        </mxCell>
      </root>
    </mxGraphModel>
  </diagram>
</mxfile>
